<?xml version="1.0" encoding="UTF-8" standalone="no"?>
<!DOCTYPE svg PUBLIC "-//W3C//DTD SVG 1.1//EN" "http://www.w3.org/Graphics/SVG/1.1/DTD/svg11.dtd">

<!-- Created with Vectornator (http://vectornator.io/) -->
<svg height="100%" stroke-miterlimit="10" style="fill-rule:nonzero;clip-rule:evenodd;stroke-linecap:round;stroke-linejoin:round;" version="1.1" viewBox="0 0 3483 1309" width="100%" xml:space="preserve" xmlns="http://www.w3.org/2000/svg" xmlns:vectornator="http://vectornator.io" xmlns:xlink="http://www.w3.org/1999/xlink">
<metadata>
<vectornator:setting key="IsTimeLapseWatermarkDisabled" value="false"/>
<vectornator:setting key="UndoHistoryDisabled" value="true"/>
<vectornator:setting key="VNDimensionsVisible" value="true"/>
<vectornator:setting key="VNSnapToGuides" value="true"/>
<vectornator:setting key="WDCMYKEnabledKey" value="false"/>
<vectornator:setting key="WDDisplayWhiteBackground" value="false"/>
<vectornator:setting key="WDDynamicGuides" value="false"/>
<vectornator:setting key="WDGuidesVisible" value="true"/>
<vectornator:setting key="WDIsolateActiveLayer" value="false"/>
<vectornator:setting key="WDOutlineMode" value="false"/>
<vectornator:setting key="WDRulersVisible" value="true"/>
<vectornator:setting key="WDSnapToEdges" value="false"/>
<vectornator:setting key="WDSnapToGrid" value="false"/>
<vectornator:setting key="WDSnapToPoints" value="false"/>
<vectornator:setting key="WDUnits" value="Points"/>
</metadata>
<defs/>
<g id="Untitled" vectornator:layerName="Untitled">
<path d="M1526.47 203.391C1523.75 199.724 1521.03 196.058 1517.66 191.512C1428.14 201.871 1337.8 212.326 1247.02 222.83C1247.51 235.674 1247.81 247.882 1248.49 260.068C1249.64 280.648 1251.05 301.214 1252.33 321.787C1254.08 349.652 1255.89 377.514 1257.53 405.385C1258.6 423.65 1259.29 441.937 1260.36 460.202C1262.01 488.406 1263.92 516.594 1265.56 544.798C1266.64 563.395 1267.29 582.017 1268.38 600.614C1269.98 628.155 1271.89 655.678 1273.49 683.22C1274.6 702.15 1275.38 721.099 1276.36 740.037C1276.55 743.68 1276.9 747.319 1277.3 750.946C1278.09 757.971 1277.61 764.292 1273.6 770.869C1267.39 781.038 1265.12 791.766 1275.75 801.532C1277.63 803.262 1277.71 807.674 1277.55 810.793C1276.68 827.725 1275.33 844.632 1274.42 861.562C1273.37 881.167 1272.61 900.787 1271.71 920.4C1270.79 940.295 1269.86 960.19 1268.89 981.058C1274.94 981.964 1281.04 982.811 1287.11 983.796C1312.77 987.958 1338.06 993.664 1361.87 1004.39C1368.44 1007.35 1374.35 1011.93 1380.22 1016.24C1382.29 1017.76 1383.33 1020.68 1385.08 1023.33C1374.16 1026.17 1094.14 1025.92 1085.44 1022.96C1088.28 1019.7 1090.26 1016.01 1093.34 1014.14C1101.82 1009.01 1110.39 1003.69 1119.59 1000.16C1145.75 990.118 1173.1 984.653 1201.61 981.397C1201.61 974.763 1201.87 968.22 1201.57 961.703C1200.35 935.121 1199.01 908.543 1197.61 881.97C1196.43 859.717 1195.14 837.47 1193.85 815.223C1193.46 808.6 1193.28 802.718 1198.83 797.08C1204.43 791.397 1204.1 782.656 1199.92 776.49C1191.39 763.913 1193.89 750.392 1194.46 737.021C1195.45 714.102 1196.94 691.202 1198.38 668.304C1200.02 642.099 1201.94 615.912 1203.54 589.704C1204.64 571.776 1205.29 553.821 1206.34 535.89C1207.98 507.685 1209.87 479.494 1211.49 451.288C1212.58 432.358 1213.25 413.403 1214.35 394.474C1215.95 367.266 1217.85 340.076 1219.46 312.868C1220.55 294.271 1221.35 275.656 1222.33 257.051C1222.84 247.425 1223.49 237.806 1224.01 228.181C1224.1 226.602 1223.86 225.006 1223.74 222.808C1133.32 212.34 1043.29 201.916 953.349 191.504C950.771 194.971 948.439 198.109 945.141 201.89C942.111 203.351 940.046 204.168 937.487 204.905C936.663 204.868 936.332 204.912 935.458 204.642C932.176 203.626 929.437 202.924 926.697 202.223C923.166 197.752 919.681 193.21 920.5 187.026C921.335 180.721 926.461 175.182 932.5 173.75C939.344 172.126 945.929 174.751 949.706 180.803C950.903 182.722 951.692 184.895 952.668 186.952C1041.97 186.952 1130.8 186.952 1221.34 186.952C1211.28 178.425 1204.28 169.615 1206.11 156.768C1207.19 149.154 1210.75 142.996 1216.77 138.26C1229.1 128.576 1248.26 130.379 1258.33 142.151C1269.55 155.278 1267.2 170.441 1251.61 185.491C1258.29 187.721 1498.6 188.698 1518.58 186.532C1519.31 184.957 1519.98 183.112 1520.96 181.444C1525.29 174.05 1534.29 171.16 1541.58 174.738C1548.94 178.351 1552.42 187.286 1549.28 195.127C1548.43 197.235 1546.78 199.019 1544.47 201.643C1540.99 203.237 1538.54 204.141 1535.47 204.935C1534.05 204.994 1533.25 205.162 1531.97 204.894C1529.82 204.102 1528.15 203.747 1526.47 203.391Z" fill="#030404" fill-rule="evenodd" opacity="1" stroke="none"/>
<path d="M3024.61 637.306C3014.13 630.902 3002.88 631.527 2992.07 630.086C2988.79 629.648 2985.34 629.72 2982.26 628.677C2980.47 628.07 2978.1 625.692 2978.13 624.15C2978.16 622.5 2980.42 620.054 2982.2 619.452C2985.59 618.311 2989.34 617.806 2992.94 617.792C3022.92 617.672 3052.91 617.724 3083.88 617.724C3121.21 715.232 3157.04 813.336 3193.72 913.335C3225.55 813.47 3256.69 715.798 3287.99 617.601C3291.92 617.601 3295.21 617.612 3298.51 617.6C3326.84 617.493 3355.17 617.346 3383.49 617.311C3387.81 617.305 3392.16 617.605 3396.44 618.146C3399.79 618.568 3402.48 620.98 3401.61 624.194C3400.99 626.465 3398.19 628.865 3395.83 629.744C3393.18 630.729 3389.88 629.789 3386.92 630.169C3378.05 631.308 3369.1 632.2 3360.38 634.115C3353.24 635.686 3349.1 640.712 3348.84 648.414C3348.49 659.065 3347.75 669.713 3347.74 680.363C3347.65 782.012 3347.65 883.661 3347.71 985.31C3347.71 990.944 3348.27 996.604 3348.97 1002.2C3349.65 1007.73 3352.78 1011.46 3358.57 1012.04C3368.48 1013.05 3378.42 1013.8 3388.35 1014.66C3392.33 1015 3396.45 1014.81 3400.22 1015.88C3402.3 1016.47 3403.79 1019.15 3405.54 1020.88C3403.74 1022.61 3402.21 1025.13 3400.07 1025.87C3397.01 1026.92 3393.51 1026.93 3390.19 1026.92C3341.87 1026.69 3293.55 1026.4 3245.23 1026.1C3240.92 1026.07 3236.14 1026.49 3234.22 1021.42C3233.04 1018.3 3236.96 1015.97 3244.93 1015.26C3251.23 1014.7 3257.57 1014.54 3263.89 1014.2C3266.55 1014.06 3269.27 1014.21 3271.86 1013.69C3287.26 1010.62 3288.87 1010.97 3289.65 994.119C3290.12 984.137 3290.12 974.128 3290.12 964.131C3290.15 870.814 3290.14 777.497 3290.14 684.18C3290.14 680.602 3290.14 677.024 3290.14 673.446C3289.69 673.328 3289.23 673.21 3288.78 673.092C3287.78 675.696 3286.66 678.26 3285.79 680.908C3251.77 784.538 3218.77 888.485 3188.22 993.199C3186.36 999.576 3184.22 1005.88 3181.89 1012.1C3180.79 1015.04 3178.93 1017.69 3177.14 1020.97C3170.63 1017.23 3169.53 1011.47 3167.72 1006.32C3159.11 981.85 3150.97 957.213 3142.06 932.855C3112.59 852.28 3082.86 771.799 3053.2 691.294C3052.33 688.939 3051.09 686.721 3049.28 682.823C3048.7 685.358 3048.39 686.093 3048.39 686.827C3048.81 788.472 3049.24 890.117 3049.68 991.763C3049.7 994.76 3049.75 997.765 3049.96 1000.75C3050.48 1008.06 3051.78 1010.43 3058.91 1011.85C3066.35 1013.32 3074.06 1013.48 3081.66 1014.09C3087.51 1014.56 3093.63 1014.04 3098.94 1020.13C3096.76 1021.85 3095.07 1023.93 3092.92 1024.68C3090.17 1025.63 3087 1026.03 3084.08 1025.77C3053.09 1023.06 3022.14 1026.42 2991.17 1026.08C2986.65 1026.03 2981.6 1027.19 2978.74 1021.38C2980.19 1016.85 2984.34 1016.4 2988.18 1016.04C2997.12 1015.21 3006.09 1014.55 3015.06 1014.13C3027.24 1013.55 3029.57 1011.48 3030.22 999.416C3030.49 994.427 3030.6 989.423 3030.6 984.425C3030.52 875.111 3030.43 765.797 3030.32 656.483C3030.32 649.826 3030.69 643.018 3024.61 637.306Z" fill="#050505" fill-rule="evenodd" opacity="1" stroke="none"/>
<path d="M2684.48 744C2684.46 714.344 2684.54 685.688 2684.34 657.034C2684.3 651.431 2683.37 645.81 2682.53 640.245C2681.81 635.425 2678.74 632.444 2673.93 631.806C2666.36 630.804 2658.75 630.112 2651.16 629.274C2647.2 628.837 2643.12 628.805 2639.34 627.724C2637.59 627.223 2635.23 624.567 2635.34 623.037C2635.45 621.34 2637.81 618.963 2639.65 618.41C2642.4 617.581 2645.56 618.003 2648.55 618.034C2687.18 618.442 2725.82 619.387 2764.45 619.079C2783.09 618.93 2801.68 617.358 2820.29 619.883C2838.96 622.417 2856.55 627.728 2872.81 637.535C2922.75 667.652 2921.62 733.706 2889.97 766.629C2874.32 782.914 2855.49 793.889 2833.97 799.769C2820.23 803.522 2805.96 805.32 2791.92 807.959C2790.03 808.314 2788.1 808.461 2783.72 809.018C2787.29 810.635 2788.69 811.498 2790.22 811.928C2804.58 815.97 2819.32 818.966 2833.26 824.134C2860.42 834.204 2878.58 853.538 2888.13 881.084C2896.79 906.083 2901.08 931.914 2904.26 958.041C2905.75 970.223 2907.42 982.434 2910.06 994.4C2911.31 1000.05 2914.34 1005.65 2917.76 1010.41C2924.6 1019.93 2933.83 1022.23 2946.44 1018.44C2945.56 1015 2944.38 1011.58 2943.86 1008.07C2942.56 999.12 2946.25 994.156 2954.42 993.363C2964.25 992.407 2969.62 996.43 2970.4 1005.34C2971.5 1018.04 2965.72 1026.72 2952.09 1029.91C2926.36 1035.94 2901.5 1033.45 2879.73 1017.39C2859.39 1002.39 2846.29 982.055 2842.43 956.888C2838.86 933.556 2836.56 910.026 2833.92 886.558C2832.61 874.928 2830.62 863.511 2825.7 852.807C2820.53 841.554 2812.67 832.778 2801.42 827.281C2783.4 818.474 2764.15 816.279 2743.43 815.978C2743.43 819.574 2743.43 822.478 2743.43 825.381C2743.43 881.692 2743.42 938.004 2743.43 994.315C2743.44 1008.18 2746.35 1012.04 2760.11 1014.17C2768.29 1015.44 2776.68 1015.41 2784.97 1015.93C2787.3 1016.08 2789.88 1015.55 2791.89 1016.4C2793.68 1017.16 2795.55 1019.21 2796.01 1021.03C2796.29 1022.14 2794.22 1024.54 2792.7 1025.21C2790.68 1026.1 2788.17 1026.08 2785.87 1026.08C2739.56 1026.12 2693.24 1026.11 2646.93 1026.1C2642.61 1026.1 2638.25 1026.17 2635.5 1021.37C2638.54 1016.04 2643.81 1016.6 2648.52 1016.14C2656.46 1015.35 2664.49 1015.22 2672.35 1014.01C2681.55 1012.6 2683.56 1010.07 2684.13 1000.89C2684.5 994.913 2684.47 988.903 2684.47 982.907C2684.49 903.605 2684.48 824.302 2684.48 744M2756.42 632.476C2747.18 635.525 2743.54 642.335 2743.52 651.602C2743.52 652.932 2743.43 654.263 2743.43 655.594C2743.42 702.524 2743.41 749.454 2743.46 796.385C2743.46 798.574 2744.03 800.762 2744.38 803.305C2765.26 802.524 2785.47 801.529 2804.69 793.899C2823.4 786.475 2836.72 773.585 2842.8 754.339C2851.56 726.62 2851.63 698.609 2842.14 671.057C2834.42 648.623 2817.9 636.064 2794.7 631.904C2782.43 629.704 2770.23 629.391 2756.42 632.476Z" fill="#060505" fill-rule="evenodd" opacity="1" stroke="none"/>
<path d="M731.631 816.29C742.37 820.211 752.586 823.365 762.189 827.837C782.986 837.52 797.606 853.251 806.253 874.669C814.289 894.574 818.933 915.297 822.003 936.409C824.253 951.89 825.306 967.568 828.113 982.935C829.696 991.605 832.69 1000.41 836.937 1008.11C843.156 1019.39 853.719 1022.44 867.832 1018.63C866.833 1015.24 865.621 1011.91 864.878 1008.47C863.235 1000.86 866.432 995.288 873.052 993.759C881.978 991.697 888.404 994.796 890.751 1002.29C893.454 1010.92 890.13 1021.21 881.836 1025.62C876.1 1028.67 869.492 1030.92 863.055 1031.68C813.309 1037.53 771.763 1006.63 763.78 957.265C759.69 931.976 757.389 906.399 754.162 880.967C753.493 875.696 752.642 870.403 751.297 865.272C745.421 842.861 731.733 827.995 709.042 821.732C694.564 817.735 679.955 815.392 663.933 815.994C663.933 819.339 663.933 822.246 663.933 825.152C663.934 881.475 663.927 937.799 663.942 994.123C663.946 1008.1 667.317 1012.32 681.541 1014.38C689.418 1015.52 697.469 1015.47 705.443 1015.94C707.77 1016.08 710.318 1015.59 712.367 1016.4C714.232 1017.13 716.823 1019.27 716.784 1020.73C716.74 1022.36 714.37 1024.53 712.518 1025.36C710.52 1026.25 707.95 1026.01 705.629 1026.01C660.306 1026.04 614.982 1026.06 569.659 1025.99C564.794 1025.98 559.455 1026.66 556.504 1020.89C560.32 1016.02 565.879 1016.59 571.042 1016.1C578.656 1015.38 586.346 1015.18 593.88 1013.98C602.157 1012.66 603.958 1010.54 605.11 1002.38C605.712 998.113 605.799 993.746 605.801 989.424C605.837 879.776 605.856 770.128 605.763 660.48C605.758 654.52 604.768 648.56 604.224 642.6C603.583 635.564 599.461 631.727 592.718 630.892C585.124 629.953 577.473 629.479 569.851 628.763C566.539 628.451 563.124 628.424 559.977 627.509C558.439 627.061 556.211 624.654 556.418 623.524C556.763 621.645 558.513 619.164 560.224 618.594C562.942 617.687 566.12 617.977 569.096 618.048C594.083 618.646 619.066 619.622 644.055 619.845C661.036 619.997 678.04 619.412 695.009 618.637C719.779 617.505 744.421 617.911 768.101 626.08C777.753 629.41 787.247 633.896 795.896 639.317C843.365 669.071 841.728 734.568 810.536 766.637C792.767 784.905 771.141 795.999 746.747 801.832C733.522 804.995 719.962 806.755 704.691 809.48C713.872 813.751 722.819 813.367 731.631 816.29M765.884 748.397C771.234 727.732 771.516 706.835 767.584 686.012C763.514 664.46 753.838 646.249 732.654 636.861C715.745 629.368 697.93 628.075 679.867 631.811C669.573 633.941 665.153 639.233 664.135 649.62C663.876 652.263 663.938 654.942 663.937 657.605C663.925 702.893 663.926 748.181 663.925 793.469C663.925 796.395 663.925 799.321 663.925 803.18C680.746 802.79 696.503 802.056 712.113 798.266C738.764 791.797 757.454 776.845 765.884 748.397Z" fill="#040404" fill-rule="evenodd" opacity="1" stroke="none"/>
<path d="M1623.1 782.661C1629.75 768.551 1632.18 754.14 1634.08 739.583C1634.64 735.302 1635.16 730.944 1636.48 726.87C1637.07 725.02 1639.83 722.33 1641.11 722.582C1643.24 723.003 1645.51 725.155 1646.69 727.181C1647.76 729.028 1647.73 731.678 1647.71 733.969C1647.64 740.297 1647.44 746.628 1647.08 752.946C1644.73 794.909 1644.74 836.859 1647.59 878.8C1647.86 882.788 1648.01 886.785 1648.12 890.781C1648.24 894.823 1647.21 898.202 1642.39 898.515C1638.2 898.787 1636.48 896.051 1635.88 892.42C1634.53 884.211 1633.37 875.971 1631.97 867.773C1630.79 860.899 1629.93 853.898 1627.94 847.248C1621.99 827.312 1609.64 817.443 1588.78 816.273C1572.82 815.377 1556.81 815.317 1540.82 814.975C1534.57 814.842 1528.32 814.954 1521.49 814.954C1521.49 881.025 1521.49 946.116 1521.49 1011.62C1523.66 1011.76 1525.61 1012.02 1527.56 1011.98C1567.2 1011.25 1606.84 1010.57 1646.48 1009.66C1653.46 1009.5 1660.45 1008.67 1667.37 1007.69C1684.1 1005.3 1696.09 996.108 1703.86 981.264C1711.57 966.535 1714.39 950.537 1716.05 934.217C1716.49 929.946 1717.07 925.541 1718.61 921.596C1719.34 919.714 1722.39 917.899 1724.54 917.712C1725.88 917.596 1728.08 920.356 1728.81 922.245C1729.73 924.632 1729.85 927.454 1729.79 930.076C1729.09 961.716 1728.29 993.355 1727.48 1024.99C1727.46 1025.59 1727.04 1026.18 1726.58 1027.34C1725.64 1027.47 1724.4 1027.8 1723.17 1027.79C1625.88 1027.12 1528.59 1026.43 1431.3 1025.69C1427.66 1025.67 1423.99 1025.4 1420.4 1024.83C1417.62 1024.38 1414.86 1022.78 1415.91 1019.56C1416.43 1017.99 1419.11 1016.39 1420.98 1016.15C1428.57 1015.16 1436.23 1014.76 1443.86 1014.04C1458.02 1012.69 1461.32 1009.42 1462.12 995.576C1462.51 988.927 1462.63 982.256 1462.64 975.594C1462.67 868.961 1462.67 762.327 1462.63 655.694C1462.63 650.701 1462.57 645.68 1462.05 640.723C1461.11 631.799 1458.54 629.137 1449.49 628.294C1442.2 627.616 1434.84 627.766 1427.53 627.35C1423.34 627.112 1418.34 627.831 1416.69 622.449C1415.73 619.318 1420.19 616.956 1427.7 616.545C1431.03 616.364 1434.37 616.522 1437.7 616.521C1517.67 616.493 1597.64 616.512 1677.61 616.377C1688.2 616.359 1698.78 615.558 1710.03 615.092C1712.94 650.334 1715.84 685.651 1718.7 720.326C1713.06 723.878 1709.61 722.658 1707.5 718.427C1705.89 715.201 1705.03 711.59 1703.93 708.124C1699.99 695.793 1696.65 683.234 1691.96 671.198C1689.36 664.506 1684.98 658.342 1680.62 652.526C1670.29 638.737 1654.8 635.114 1639.01 634.238C1606.76 632.449 1574.46 631.721 1542.18 630.65C1535.57 630.43 1528.95 630.618 1521.62 630.618C1521.62 687.795 1521.62 744.3 1521.62 801.177C1521.69 801.238 1522.16 802.012 1522.65 802.025C1548.63 802.668 1574.59 802.963 1600.28 798.01C1609.76 796.183 1618.2 792.743 1623.1 782.661Z" fill="#070606" fill-rule="evenodd" opacity="1" stroke="none"/>
<path d="M2242 1025.87C2209.68 1025.95 2178.36 1026.06 2147.04 1026.06C2142.58 1026.06 2137.56 1027.18 2134.44 1021.69C2136.92 1016.73 2141.86 1016.77 2146.24 1016.18C2153.16 1015.26 2160.17 1014.96 2167.09 1014.02C2177.91 1012.55 2180.03 1010.49 2181.35 999.614C2181.99 994.346 2181.9 988.971 2181.9 983.645C2181.84 873.028 2181.75 762.411 2181.65 651.793C2181.65 649.463 2181.75 647.105 2181.44 644.808C2180.18 635.442 2177.74 632.657 2168.37 631.424C2161.13 630.471 2153.78 630.366 2146.48 629.896C2139.08 629.419 2135.85 627.447 2135.82 623.36C2135.79 619.245 2138.8 617.3 2146.55 617.31C2169.54 617.34 2192.53 617.713 2215.52 617.696C2270.83 617.655 2326.13 617.663 2381.43 617.213C2396.69 617.088 2411.94 615.424 2428.04 614.413C2428.47 616.257 2429.23 618.355 2429.44 620.505C2432.23 649.31 2434.95 678.12 2437.65 706.933C2437.93 709.913 2438.05 712.919 2438.05 715.913C2438.05 719.387 2437.45 722.945 2433.44 723.778C2428.77 724.748 2427.02 721.162 2425.83 717.567C2424.89 714.745 2424.53 711.737 2423.68 708.883C2419.96 696.5 2417.14 683.738 2412.19 671.865C2402.84 649.425 2385.19 637.013 2361.09 634.019C2353.17 633.036 2345.19 632.123 2337.24 632.058C2312.25 631.853 2287.26 631.982 2262.28 632.175C2255.32 632.229 2248.36 632.953 2240.87 633.401C2240.87 690.335 2240.87 746.763 2240.87 804.527C2258.09 803.968 2274.99 803.831 2291.83 802.717C2302.07 802.04 2312.23 800.001 2322.39 798.312C2334.48 796.301 2341.53 788.388 2345.86 777.505C2350.82 764.995 2352.4 751.807 2353.82 738.56C2354.24 734.641 2354.97 730.619 2356.44 727.007C2357.1 725.4 2360.07 723.679 2361.79 723.865C2363.47 724.047 2365.47 726.326 2366.31 728.153C2367.22 730.152 2367.32 732.709 2367.18 734.987C2364.29 781.91 2363.88 828.846 2366.29 875.799C2366.58 881.438 2367.29 887.054 2367.65 892.691C2367.9 896.71 2366.89 900.031 2362.05 900.487C2357.25 900.938 2355.51 897.83 2354.9 893.926C2353.19 883.088 2352.14 872.126 2349.96 861.391C2348.31 853.313 2345.79 845.32 2342.78 837.636C2339.58 829.47 2333.27 823.88 2324.57 821.987C2316.15 820.155 2307.62 818.531 2299.05 817.788C2279.82 816.121 2260.57 816.914 2240.35 818.156C2240.35 826.975 2240.37 835.207 2240.35 843.439C2240.23 890.413 2240.1 937.386 2239.97 984.359C2239.96 986.692 2239.88 989.024 2239.91 991.356C2240.07 1007.88 2246.62 1014.82 2263.4 1015.83C2269.71 1016.22 2276.06 1016.07 2282.39 1016.07C2286.2 1016.07 2289.78 1016.33 2291.43 1020.74C2289.77 1026.04 2285.35 1026.1 2280.98 1026.08C2268.32 1026.05 2255.66 1025.95 2242 1025.87Z" fill="#040303" fill-rule="evenodd" opacity="1" stroke="none"/>
<path d="M1989.42 704.061C1989.57 706.585 1989.65 708.249 1989.75 709.913C1989.94 713.213 1989.15 716.602 1985.44 716.421C1982.99 716.302 1979.45 714.348 1978.5 712.261C1976.34 707.486 1975.35 702.156 1974.11 696.996C1968.74 674.565 1957.41 655.752 1939.71 640.973C1922.52 626.625 1902.89 620.007 1880.37 623.359C1854.13 627.268 1836.27 643.522 1829.87 669.236C1826.52 682.721 1826.37 696.395 1828.74 709.913C1832.49 731.306 1843.6 748.487 1862.02 759.992C1878.08 770.019 1894.95 778.739 1911.42 788.106C1926.45 796.651 1941.71 804.828 1956.31 814.057C1965.26 819.717 1973.51 826.656 1981.47 833.697C2030.06 876.642 2022.95 941.952 1993.09 979.876C1958.23 1024.15 1902.69 1041.61 1846.03 1025.18C1834.57 1021.86 1823.53 1017.09 1812.3 1012.98C1807.63 1011.27 1803.06 1009.17 1798.27 1007.9C1790.13 1005.75 1787.66 1007.3 1785.31 1015.61C1784.41 1018.79 1784.31 1022.18 1783.58 1025.41C1782.38 1030.64 1779.67 1032.85 1775.38 1032.29C1770.41 1031.63 1769.96 1027.85 1770.24 1024.08C1770.68 1018.11 1771.46 1012.16 1772.2 1006.22C1775.86 976.692 1776.42 947.103 1774.09 917.445C1773.83 914.136 1773.85 910.779 1774.07 907.466C1774.29 904.115 1776.2 901.403 1779.64 901.72C1781.86 901.925 1785.02 903.569 1785.81 905.406C1787.75 909.92 1788.62 914.904 1789.82 919.725C1792.54 930.685 1795 941.717 1797.98 952.604C1799.28 957.38 1801.4 961.976 1803.51 966.482C1824.29 1010.79 1871.76 1031.01 1918.12 1015.22C1939.2 1008.04 1952.83 993.39 1959.17 972.215C1964.12 955.664 1964.64 938.724 1961.18 921.797C1957.22 902.474 1947.01 886.827 1932.19 874.024C1916.97 860.87 1899.66 851.016 1881.92 841.729C1867.49 834.175 1853.01 826.594 1839.27 817.901C1828.63 811.174 1818.51 803.352 1809.2 794.879C1790 777.416 1780.96 754.99 1779.84 729.224C1778.65 701.778 1784.38 676.265 1801.13 653.924C1828 618.091 1872.53 602.924 1916.81 614.805C1927.38 617.641 1937.57 621.86 1948.04 625.083C1953.41 626.733 1958.96 628.015 1964.52 628.677C1969.7 629.293 1973.51 627.009 1974.52 621.28C1975.04 618.344 1975.28 614.995 1976.91 612.73C1978.36 610.705 1981.52 608.954 1983.94 608.941C1985.37 608.933 1987.86 612.441 1988.05 614.532C1988.46 619.122 1987.85 623.831 1987.41 628.467C1985.02 653.461 1985.66 678.368 1989.42 704.061Z" fill="#050404" fill-rule="evenodd" opacity="1" stroke="none"/>
<path d="M513.461 979.786C514.237 992.389 514.955 1004.02 515.621 1015.66C515.735 1017.65 516.091 1019.8 515.515 1021.62C514.675 1024.27 513.686 1028.03 511.697 1028.91C508.124 1030.49 505.733 1027.11 504.18 1024.11C501.732 1019.39 499.871 1014.34 497.183 1009.77C494.348 1004.95 490.834 1000.53 487.311 995.5C485.014 997.023 483.332 997.955 481.858 999.144C454.673 1021.07 423.524 1031.31 388.713 1032.38C273.4 1035.92 198.713 947.413 187.749 857.839C182.286 813.198 184.689 769.275 201.936 727.254C221.905 678.601 254.938 642.124 304.922 623.207C341.071 609.525 378.472 608.591 416.066 616.189C431.509 619.311 445.258 627.124 459.017 634.58C464.274 637.429 469.474 640.477 474.987 642.736C483.37 646.173 487.031 644.741 491.56 637.083C494.266 632.509 496.379 627.525 499.53 623.3C501.013 621.311 504.536 619.355 506.742 619.725C510.49 620.354 509.917 624.223 509.299 627.194C501.993 662.351 502.27 698.021 501.988 733.657C501.956 737.651 502.266 741.761 501.41 745.591C500.926 747.754 498.61 750.674 496.708 751.025C494.806 751.376 491.649 749.457 490.39 747.613C488.799 745.282 488.515 742.035 487.763 739.158C483.228 721.814 480.257 703.875 473.897 687.231C458.543 647.047 427.901 626.537 385.293 624.141C374.747 623.548 363.962 624.324 353.491 625.862C331.903 629.035 314.165 639.649 299.978 656.211C278.91 680.808 266.164 709.474 259.46 740.86C247.241 798.068 247.239 855.224 262.163 911.994C268.311 935.381 278.805 956.807 293.703 976.041C330.007 1022.91 386.976 1028.09 425.665 1013.83C450.724 1004.58 469.649 987.912 481.84 964.008C491.415 945.234 497.957 925.386 502.14 904.73C503.191 899.54 504.5 894.338 506.416 889.424C507.031 887.846 510.14 886.126 511.806 886.389C513.446 886.647 515.479 889.144 515.944 891.007C516.648 893.825 516.24 896.948 516.138 899.936C515.241 926.231 514.308 952.524 513.461 979.786Z" fill="#060505" fill-rule="evenodd" opacity="1" stroke="none"/>
<path d="M2575.98 618.092C2583.63 617.969 2590.3 617.679 2596.95 617.832C2599.49 617.891 2602.27 618.486 2604.45 619.704C2607.07 621.164 2606.82 624.15 2604.37 625.288C2601.13 626.796 2597.42 627.534 2593.83 627.99C2586.9 628.87 2579.89 629.094 2572.96 630.004C2563.95 631.189 2561.42 633.723 2560.38 642.609C2559.8 647.555 2559.71 652.58 2559.71 657.569C2559.67 764.82 2559.67 872.072 2559.71 979.324C2559.71 986.314 2560.08 993.305 2560.38 1000.29C2560.64 1006.69 2563.57 1011.08 2570.2 1012.13C2578.72 1013.48 2587.27 1014.65 2595.82 1015.8C2598.12 1016.11 2600.63 1015.62 2602.75 1016.37C2604.33 1016.92 2606.63 1019.02 2606.49 1020.15C2606.25 1022.01 2604.62 1024.48 2602.95 1025.17C2600.63 1026.13 2597.72 1025.96 2595.09 1025.77C2556.5 1023 2517.91 1023.35 2479.3 1025.47C2473.66 1025.78 2467.99 1025.86 2462.33 1025.82C2458.63 1025.79 2454.24 1025.6 2454.04 1020.75C2453.85 1016.33 2458.13 1016.08 2461.35 1015.66C2466.63 1014.99 2471.95 1014.66 2477.26 1014.2C2480.24 1013.93 2483.27 1013.93 2486.2 1013.39C2495.84 1011.61 2498.04 1009.57 2499.35 999.945C2500.15 994.03 2500.29 987.99 2500.29 982.006C2500.34 874.088 2500.34 766.17 2500.3 658.253C2500.29 652.93 2499.94 647.603 2499.64 642.285C2499.27 635.808 2495.93 631.646 2489.47 630.638C2482.57 629.563 2475.61 628.887 2468.67 628.106C2466.03 627.809 2463.31 627.999 2460.73 627.437C2457.91 626.82 2454.25 626.288 2454.5 622.304C2454.73 618.543 2457.9 617.843 2461.08 617.786C2463.42 617.745 2465.75 617.797 2468.08 617.803C2503.71 617.903 2539.35 618.002 2575.98 618.092Z" fill="#050505" fill-rule="evenodd" opacity="1" stroke="none"/>
<path d="M1009.63 880C1009.67 915.998 1009.7 950.996 1009.75 985.994C1009.76 988.659 1009.86 991.326 1009.97 993.99C1010.61 1009.8 1012.43 1011.89 1028.58 1014.02C1035.84 1014.98 1043.16 1015.45 1050.46 1015.98C1053.8 1016.22 1057.01 1017.17 1056.39 1020.9C1056.1 1022.68 1053.06 1024.43 1050.91 1025.36C1049.22 1026.09 1046.96 1025.68 1044.98 1025.55C1006.69 1022.97 968.41 1023.08 930.115 1025.23C924.795 1025.53 919.454 1025.6 914.124 1025.56C911.833 1025.54 909.416 1025.33 907.303 1024.54C905.98 1024.05 904.125 1022.17 904.275 1021.17C904.522 1019.55 905.958 1017.17 907.328 1016.82C911.809 1015.68 916.476 1015.23 921.091 1014.68C927.031 1013.97 932.999 1013.5 938.936 1012.78C945.105 1012.03 948.351 1008.28 949.116 1002.25C949.492 999.28 949.931 996.307 950.072 993.323C950.338 987.665 950.541 981.997 950.542 976.333C950.568 872.673 950.574 769.012 950.531 665.352C950.528 658.023 950.356 650.677 949.833 643.37C949.182 634.257 947.027 631.78 937.931 630.158C931.396 628.993 924.713 628.67 918.107 627.888C914.818 627.499 911.44 627.274 908.325 626.277C906.791 625.787 904.459 623.045 904.749 622.476C905.662 620.689 907.43 618.953 909.281 618.143C910.978 617.4 913.212 617.836 915.209 617.836C958.535 617.824 1001.86 617.798 1045.19 617.863C1049.3 617.869 1054.1 616.819 1056.24 622.583C1053.26 627.741 1047.87 627.255 1043.18 627.878C1036.25 628.799 1029.21 628.93 1022.29 629.9C1013.91 631.075 1011.28 633.685 1010.37 642.043C1009.68 648.318 1009.66 654.686 1009.66 661.013C1009.62 733.675 1009.63 806.338 1009.63 880Z" fill="#060606" fill-rule="evenodd" opacity="1" stroke="none"/>
<path d="M937.981 204.985C940.046 204.168 942.111 203.351 944.712 202.527C956.488 226.653 967.838 250.736 978.944 274.931C999.087 318.815 1019.07 362.774 1039.15 406.687C1050.64 431.825 1062.05 457.008 1073.84 482.009C1076.92 488.557 1076.22 493.745 1072.28 499.641C1060.33 517.499 1044.93 531.773 1025.99 541.377C964.852 572.375 903.349 573.602 842.349 540.84C824.751 531.389 810.795 517.656 800.759 500.114C796.872 493.32 795.926 487.194 799.461 479.544C829.075 415.455 858.295 351.184 887.637 286.969C900.37 259.105 913.112 231.244 926.273 202.802C929.437 202.924 932.176 203.626 934.951 205.187C932.353 211.421 929.592 216.737 927.104 222.179C914.925 248.818 902.823 275.492 890.684 302.15C863.646 361.524 836.594 420.892 809.591 480.282C808.592 482.478 808.039 484.877 807.188 487.453C893.652 487.453 979.084 487.453 1065.46 487.453C1063.69 483.069 1062.37 479.371 1060.74 475.814C1022.05 391.389 983.312 306.989 944.671 222.542C942.071 216.859 940.194 210.845 937.981 204.985Z" fill="#f1af4c" fill-rule="evenodd" opacity="1" stroke="none"/>
<path d="M1525.82 203.762C1528.15 203.747 1529.82 204.102 1532.07 205.719C1531.23 210.709 1530.05 214.536 1528.4 218.152C1516.37 244.499 1504.25 270.801 1492.17 297.123C1464.54 357.33 1436.91 417.536 1409.33 477.764C1407.99 480.673 1407.09 483.78 1405.75 487.443C1492.26 487.443 1577.66 487.443 1664.82 487.443C1621.57 392.574 1578.82 298.809 1536.08 205.044C1538.54 204.141 1540.99 203.237 1543.97 202.291C1559.38 234.603 1574.32 266.93 1589.13 299.319C1608.51 341.704 1627.77 384.142 1647.1 426.547C1654.97 443.813 1662.52 461.243 1670.97 478.221C1675.04 486.393 1674.41 493.349 1669.95 500.771C1660.5 516.516 1647.74 528.979 1632.3 538.682C1605.42 555.572 1575.88 563.164 1544.26 564.179C1508.48 565.327 1474.79 558.259 1443.55 540.564C1425.03 530.075 1409.35 516.505 1397.87 498.259C1394.48 492.864 1394.18 488.416 1396.9 482.56C1420.57 431.527 1443.96 380.362 1467.4 329.219C1484.88 291.089 1502.29 252.929 1519.77 214.801C1521.43 211.18 1523.37 207.686 1525.82 203.762Z" fill="#f1af4c" fill-rule="evenodd" opacity="1" stroke="none"/>
<path d="M463.931 457.347C465.301 459.385 466.645 461.409 468.006 461.42C490.607 461.616 513.21 461.56 535.66 461.56C536.375 460.047 537.133 459.188 537.135 458.329C537.16 440.674 537.423 423.011 536.946 405.368C536.607 392.831 536.151 392.866 523.965 392.002C522.348 391.887 520.725 391.506 519.174 391.024C518.756 390.894 518.595 389.938 518.323 389.358C524.454 386.857 571.509 386.383 580.266 388.837C577.708 392.579 573.83 391.652 570.456 391.981C562.694 392.74 562.3 393.059 561.89 401C561.752 403.659 561.785 406.329 561.785 408.994C561.779 450.304 561.778 491.614 561.782 532.925C561.782 535.59 561.769 538.257 561.862 540.919C562.227 551.339 562.341 551.406 572.419 552.442C575.169 552.724 577.889 553.3 582.972 554.12C579.553 555.995 578.485 557.086 577.408 557.096C558.437 557.262 539.464 557.317 520.492 557.283C519.765 557.282 519.04 556.155 516.932 554.406C523.664 553.281 529.107 552.372 535.522 551.3C536.004 548.802 537.012 545.969 537.027 543.13C537.152 518.495 537.099 493.859 537.099 468.646C512.974 468.646 489.14 468.646 464.645 468.646C464.429 469.923 463.95 471.45 463.947 472.978C463.911 494.966 463.846 516.954 463.991 538.941C464.068 550.567 464.252 550.519 476.146 552.311C478.362 552.645 480.495 553.521 483.104 554.273C477.928 557.622 477.929 557.552 463.38 557.268C456.058 557.126 448.728 557.406 441.405 557.282C434.574 557.167 427.639 558.048 420.918 556.533C420.822 555.728 420.727 554.924 420.632 554.119C424.139 553.433 427.628 552.318 431.16 552.162C436.51 551.926 439.155 549.58 439.215 544.229C439.252 540.9 439.494 537.572 439.496 534.244C439.516 492.933 439.509 451.623 439.507 410.312C439.507 408.647 439.537 406.978 439.456 405.316C438.83 392.418 437.516 390.755 426.652 391.677C424.633 391.848 422.487 390.514 419.622 389.636C421.309 388.447 422.091 387.413 422.876 387.412C441.851 387.379 460.827 387.439 479.801 387.578C480.588 387.583 481.368 388.516 484.065 390.24C480.125 391.112 477.911 391.898 475.655 392.052C464.448 392.819 464.064 393.004 463.971 404.426C463.831 421.748 463.92 439.073 463.931 457.347Z" fill="#080808" fill-rule="evenodd" opacity="1" stroke="none"/>
<path d="M595.905 553.802C613.625 552.038 613.636 552.038 613.639 535.224C613.646 492.564 613.643 449.904 613.639 407.243C613.639 404.577 613.703 401.906 613.555 399.247C613.295 394.575 611.179 391.916 606.048 391.964C602.286 391.998 598.518 391.383 593.32 390.933C596.959 386.197 600.399 387.103 603.403 387.094C633.396 386.998 663.39 386.984 693.384 386.951C701.001 386.943 708.617 386.95 717.098 386.95C718.201 401.243 719.33 415.875 720.459 430.506C719.719 430.776 718.978 431.047 718.238 431.317C716.95 429.778 715.133 428.434 714.479 426.661C712.873 422.311 711.9 417.733 710.5 413.301C706.781 401.521 698.744 394.742 686.374 394.4C670.751 393.969 655.107 394.296 638.807 394.296C638.807 416.881 638.807 439.997 638.807 464.034C649.387 464.12 659.847 464.656 670.373 462.624C676.77 461.389 680.475 457.923 682.05 451.896C682.972 448.367 683.516 444.74 684.387 441.196C685.205 437.87 684.757 434.008 688.339 430.8C689.332 432.315 690.531 433.292 690.534 434.273C690.593 457.172 690.538 480.071 690.384 502.969C690.38 503.488 688.983 503.998 686.819 505.488C685.861 501.336 685.024 498.006 684.337 494.646C683.606 491.073 683.193 487.428 682.33 483.89C680.359 475.812 674.96 471.087 666.83 470.604C657.619 470.056 648.349 470.477 638.63 470.477C638.63 497.424 638.63 523.952 638.63 551.128C640.712 551.372 642.915 551.9 645.102 551.843C661.081 551.427 677.059 550.424 693.031 550.527C709.208 550.632 715.592 539.738 718.016 527.07C718.969 522.086 718.199 516.511 722.292 512.083C725.386 517.442 725.746 541.611 723.242 558.051C713.336 558.051 703.405 558.057 693.474 558.05C663.813 558.03 634.151 558.013 604.49 557.969C601.83 557.965 599.123 558.019 596.545 557.509C595.859 557.373 595.569 555.242 595.905 553.802Z" fill="#080808" fill-rule="evenodd" opacity="1" stroke="none"/>
<path d="M314.492 393.73C303.155 393.762 293.197 395.346 287.705 405.445C284.913 410.581 283.546 416.537 281.879 422.223C280.817 425.848 281.536 430.154 277.08 433.141C276.036 431.53 274.45 430.226 274.519 429.016C275.305 415.153 276.344 401.305 277.338 387.126C320.83 387.126 363.071 387.126 406.485 387.126C407.726 402.174 408.994 417.542 410.407 434.675C407.262 432.97 404.999 432.513 404.454 431.291C403.264 428.623 402.701 425.599 402.314 422.663C399.5 401.349 390.215 392.813 368.754 392.329C364.131 392.225 359.49 392.906 354.296 393.264C354.086 396.179 353.745 398.733 353.743 401.287C353.711 446.266 353.719 491.246 353.726 536.225C353.727 538.223 353.678 540.233 353.868 542.217C354.567 549.528 356.435 551.354 363.661 552.171C367.137 552.563 370.601 553.066 374.344 555.382C373.213 556.109 372.083 557.467 370.951 557.469C351.3 557.505 331.65 557.395 312 557.232C310.803 557.223 309.612 556.508 308.215 554.21C312.094 553.543 315.954 552.731 319.856 552.24C327.406 551.289 328.01 550.777 328.731 543.05C328.916 541.063 328.98 539.058 328.98 537.061C328.995 491.415 328.996 445.77 328.98 400.124C328.979 398.205 328.787 396.286 328.646 393.665C323.899 393.665 319.666 393.665 314.492 393.73Z" fill="#0a0b0b" fill-rule="evenodd" opacity="1" stroke="none"/>
</g>
</svg>
