<svg version="1.1" id="Layer_1" xmlns="http://www.w3.org/2000/svg" xmlns:xlink="http://www.w3.org/1999/xlink" x="0px" y="0px"
	 width="100%" viewBox="0 0 3483 1309" enable-background="new 0 0 3483 1309" xml:space="preserve">
<path fill="#FEFFFE" opacity="1.000000" stroke="none" 
	d="
M2194.000000,1312.000000 
	C1462.666626,1312.000000 732.333313,1312.000000 2.000000,1312.000000 
	C2.000000,875.333313 2.000000,438.666656 2.000000,2.000000 
	C1163.333374,2.000000 2324.666748,2.000000 3486.000000,2.000000 
	C3486.000000,438.666656 3486.000000,875.333313 3486.000000,1312.000000 
	C3055.666748,1312.000000 2625.333252,1312.000000 2194.000000,1312.000000 
M925.849426,203.381729 
	C913.111755,231.244125 900.369873,259.104614 887.637268,286.969330 
	C858.294800,351.183899 829.075378,415.455292 799.461121,479.544220 
	C795.926147,487.194336 796.871948,493.319702 800.759216,500.114258 
	C810.795410,517.656311 824.750854,531.388733 842.349426,540.840454 
	C903.348694,573.601685 964.851990,572.375427 1025.993042,541.376770 
	C1044.934570,531.773376 1060.326538,517.498596 1072.277832,499.640564 
	C1076.223267,493.745178 1076.922974,488.556793 1073.835083,482.008636 
	C1062.045654,457.008301 1050.643188,431.825104 1039.147949,406.686584 
	C1019.067688,362.773712 999.086609,318.815369 978.943726,274.931335 
	C967.838074,250.736252 956.487671,226.653488 946.106934,201.246017 
	C948.438965,198.108749 950.770996,194.971497 953.348816,191.503571 
	C1043.289917,201.916382 1133.320923,212.339615 1223.743652,222.808182 
	C1223.862061,225.005554 1224.095215,226.601974 1224.009277,228.181000 
	C1223.485352,237.806396 1222.836060,247.425049 1222.327759,257.051208 
	C1221.345459,275.655640 1220.553711,294.270905 1219.455444,312.868286 
	C1217.848999,340.075775 1215.945068,367.265747 1214.354614,394.474121 
	C1213.248169,413.403320 1212.581421,432.358063 1211.492432,451.288422 
	C1209.869873,479.494354 1207.979126,507.684753 1206.336060,535.889587 
	C1205.291260,553.821289 1204.638550,571.776306 1203.541870,589.704468 
	C1201.938599,615.911682 1200.019897,642.099487 1198.375732,668.304321 
	C1196.939087,691.202393 1195.445557,714.101807 1194.463135,737.021484 
	C1193.889893,750.392090 1191.392456,763.913330 1199.921631,776.489685 
	C1204.103638,782.655823 1204.428589,791.397217 1198.832520,797.079956 
	C1193.280640,802.717773 1193.460571,808.600403 1193.846436,815.223389 
	C1195.142822,837.469604 1196.432739,859.716614 1197.605469,881.969604 
	C1199.005859,908.543457 1200.345215,935.120972 1201.568481,961.703430 
	C1201.868408,968.220276 1201.613159,974.762634 1201.613159,981.396606 
	C1173.104248,984.652954 1145.753418,990.117554 1119.586060,1000.157227 
	C1110.390747,1003.685120 1101.818359,1009.010803 1093.340454,1014.141785 
	C1090.257080,1016.007874 1088.276611,1019.696289 1085.441162,1022.957947 
	C1094.141846,1025.919800 1374.162476,1026.169434 1385.081787,1023.331299 
	C1383.330200,1020.681763 1382.292603,1017.759155 1380.224121,1016.240723 
	C1374.353516,1011.931152 1368.443604,1007.347473 1361.867310,1004.385681 
	C1338.061646,993.663879 1312.773315,987.958313 1287.109497,983.795654 
	C1281.036987,982.810608 1274.942017,981.964111 1268.887573,981.058411 
	C1269.858643,960.190002 1270.792847,940.295410 1271.708130,920.399963 
	C1272.610596,900.787048 1273.370483,881.166626 1274.422485,861.561829 
	C1275.330933,844.631714 1276.677246,827.724792 1277.545410,810.793030 
	C1277.705200,807.674377 1277.630005,803.262085 1275.747314,801.532471 
	C1265.116333,791.766113 1267.393066,781.037537 1273.595581,770.869141 
	C1277.607056,764.292480 1278.088135,757.971069 1277.303589,750.946106 
	C1276.898560,747.319397 1276.546387,743.680298 1276.358276,740.036987 
	C1275.380859,721.098999 1274.596558,702.150024 1273.494263,683.219543 
	C1271.890503,655.678345 1269.983154,628.154846 1268.377930,600.613708 
	C1267.294067,582.016785 1266.636353,563.394958 1265.557983,544.797668 
	C1263.922241,516.593689 1262.011597,488.405609 1260.362549,460.202332 
	C1259.294556,441.937286 1258.602173,423.650299 1257.530273,405.385498 
	C1255.894653,377.513519 1254.080200,349.652069 1252.334839,321.786530 
	C1251.046265,301.213959 1249.643799,280.647827 1248.491089,260.067657 
	C1247.808594,247.881561 1247.512817,235.673752 1247.018311,222.829956 
	C1337.795166,212.325516 1428.140869,201.870956 1517.661377,191.511902 
	C1521.033203,196.057556 1523.753174,199.724365 1525.173340,204.132767 
	C1523.365723,207.685669 1521.430176,211.179932 1519.770386,214.800613 
	C1502.291382,252.929459 1484.879639,291.089172 1467.403442,329.219330 
	C1443.963379,380.361664 1420.572998,431.527222 1396.896606,482.560059 
	C1394.179688,488.416290 1394.480469,492.863708 1397.872803,498.258698 
	C1409.345947,516.504517 1425.034180,530.074890 1443.549805,540.563782 
	C1474.786621,558.259094 1508.477051,565.326660 1544.261108,564.178772 
	C1575.881348,563.164490 1605.415771,555.572144 1632.298340,538.681702 
	C1647.740479,528.979309 1660.496704,516.515808 1669.949707,500.770538 
	C1674.405640,493.348633 1675.039185,486.392853 1670.971069,478.220642 
	C1662.519287,461.242859 1654.974121,443.812683 1647.102539,426.547424 
	C1627.768799,384.141968 1608.506836,341.703705 1589.128418,299.318695 
	C1574.320312,266.930084 1559.377808,234.602936 1545.496582,200.951706 
	C1546.779907,199.018951 1548.434814,197.235245 1549.280151,195.126938 
	C1552.424072,187.285934 1548.940063,178.350525 1541.579712,174.737640 
	C1534.290161,171.159515 1525.285400,174.049698 1520.957642,181.443893 
	C1519.981445,183.111710 1519.307861,184.956512 1518.581543,186.531891 
	C1498.595947,188.697723 1258.287354,187.720657 1251.614990,185.491333 
	C1267.203369,170.440857 1269.551147,155.277924 1258.325562,142.151398 
	C1248.258057,130.379044 1229.096191,128.575836 1216.774170,138.260284 
	C1210.748291,142.996277 1207.194580,149.153961 1206.108398,156.767960 
	C1204.275513,169.614822 1211.279175,178.424896 1221.340088,186.952209 
	C1130.801636,186.952209 1041.971558,186.952209 952.667542,186.952209 
	C951.691895,184.895432 950.903076,182.721680 949.705750,180.802872 
	C945.929382,174.751190 939.343506,172.126419 932.499695,173.749878 
	C926.460571,175.182449 921.334534,180.721237 920.499939,187.026031 
	C919.681396,193.210144 923.166321,197.752258 925.849426,203.381729 
M3025.201172,637.845154 
	C3030.689697,643.017578 3030.316406,649.825500 3030.323242,656.483398 
	C3030.431885,765.797424 3030.524170,875.111389 3030.595459,984.425415 
	C3030.598877,989.422668 3030.490723,994.426758 3030.221924,999.416138 
	C3029.571777,1011.476196 3027.239746,1013.549561 3015.060059,1014.126770 
	C3006.088623,1014.551941 2997.122070,1015.210327 2988.178955,1016.040039 
	C2984.340088,1016.396179 2980.191406,1016.849609 2978.737061,1021.377808 
	C2981.595215,1027.190552 2986.654297,1026.034424 2991.170410,1026.083740 
	C3022.139404,1026.421265 3053.094971,1023.058716 3084.082764,1025.772583 
	C3086.995850,1026.027588 3090.167969,1025.631470 3092.920654,1024.676025 
	C3095.072754,1023.929138 3096.760986,1021.845703 3098.940186,1020.132202 
	C3093.630371,1014.038147 3087.510010,1014.560059 3081.661621,1014.092163 
	C3074.058838,1013.483887 3066.348389,1013.322510 3058.907227,1011.845337 
	C3051.776123,1010.429688 3050.477051,1008.057861 3049.960205,1000.753479 
	C3049.748535,997.764771 3049.696289,994.760498 3049.683350,991.762756 
	C3049.238281,890.117493 3048.805664,788.472107 3048.394043,686.826721 
	C3048.390869,686.092834 3048.703857,685.357605 3049.275146,682.823486 
	C3051.094971,686.720581 3052.333740,688.939087 3053.201416,691.294189 
	C3082.861328,771.799011 3112.585693,852.280334 3142.056152,932.854553 
	C3150.965332,957.212708 3159.108643,981.850220 3167.718262,1006.319092 
	C3169.531250,1011.470947 3170.631348,1017.228699 3177.138916,1020.966125 
	C3178.925781,1017.689636 3180.786133,1015.038513 3181.887207,1012.102661 
	C3184.219727,1005.883301 3186.363770,999.575867 3188.224121,993.199219 
	C3218.771484,888.484802 3251.773193,784.537781 3285.789795,680.907776 
	C3286.658691,678.260254 3287.779785,675.695557 3288.783447,673.092224 
	C3289.234863,673.210266 3289.686523,673.328247 3290.137939,673.446289 
	C3290.137939,677.024048 3290.137695,680.601807 3290.137695,684.179565 
	C3290.138916,777.496887 3290.153564,870.814148 3290.122803,964.131470 
	C3290.119629,974.128174 3290.117188,984.137085 3289.651611,994.118713 
	C3288.865479,1010.966431 3287.262695,1010.618896 3271.858643,1013.693054 
	C3269.270996,1014.209351 3266.549072,1014.058899 3263.888428,1014.202576 
	C3257.568604,1014.544006 3251.232178,1014.696228 3244.932373,1015.259460 
	C3236.964844,1015.971863 3233.041260,1018.303650 3234.224121,1021.423157 
	C3236.144775,1026.489014 3240.919434,1026.073364 3245.234863,1026.099731 
	C3293.554688,1026.395874 3341.874512,1026.693481 3390.194580,1026.916748 
	C3393.505615,1026.932007 3397.011475,1026.915527 3400.066406,1025.865356 
	C3402.208740,1025.129028 3403.737549,1022.608276 3405.540283,1020.884338 
	C3403.785156,1019.146912 3402.296631,1016.465942 3400.216797,1015.878113 
	C3396.447998,1014.813110 3392.326660,1014.999329 3388.352783,1014.656677 
	C3378.422852,1013.800537 3368.482910,1013.045166 3358.567871,1012.042603 
	C3352.784180,1011.457825 3349.652344,1007.733521 3348.967529,1002.202759 
	C3348.273926,996.603699 3347.713379,990.943787 3347.709961,985.310120 
	C3347.648193,883.661011 3347.645752,782.011719 3347.742432,680.362671 
	C3347.752686,669.712830 3348.494873,659.064636 3348.843750,648.413940 
	C3349.095947,640.711792 3353.236084,635.685791 3360.382080,634.115479 
	C3369.098389,632.200195 3378.047852,631.308105 3386.921387,630.168640 
	C3389.876953,629.789124 3393.176758,630.728638 3395.828125,629.743652 
	C3398.194092,628.864807 3400.985596,626.464539 3401.605957,624.193848 
	C3402.484131,620.980042 3399.788330,618.567810 3396.444092,618.145996 
	C3392.158691,617.605408 3387.812988,617.305115 3383.493652,617.310547 
	C3355.165527,617.345886 3326.837402,617.492798 3298.509277,617.599548 
	C3295.212646,617.612000 3291.915771,617.601257 3287.986816,617.601257 
	C3256.685791,715.798462 3225.552246,813.469788 3193.719238,913.335449 
	C3157.044678,813.335693 3121.213379,715.231873 3083.881104,617.723572 
	C3052.906250,617.723572 3022.923340,617.671570 2992.941406,617.791809 
	C2989.340332,617.806335 2985.593262,618.311340 2982.204346,619.452026 
	C2980.416016,620.054077 2978.158936,622.500183 2978.129395,624.149780 
	C2978.101807,625.692322 2980.470703,628.069763 2982.260254,628.676514 
	C2985.336670,629.719666 2988.785889,629.647949 2992.073242,630.086121 
	C3002.882568,631.527039 3014.125977,630.902466 3025.201172,637.845154 
M2684.480713,744.999695 
	C2684.480713,824.302307 2684.487305,903.604858 2684.468018,982.907471 
	C2684.466553,988.903198 2684.503662,994.912720 2684.131592,1000.891479 
	C2683.560791,1010.071960 2681.546631,1012.598206 2672.353516,1014.012817 
	C2664.488281,1015.223145 2656.460938,1015.346252 2648.523926,1016.136292 
	C2643.813965,1016.604980 2638.543701,1016.035522 2635.502197,1021.374390 
	C2638.249756,1026.174683 2642.611084,1026.102539 2646.926025,1026.103149 
	C2693.240723,1026.108643 2739.555664,1026.118652 2785.870361,1026.077637 
	C2788.170166,1026.075562 2790.682129,1026.099854 2792.699463,1025.212280 
	C2794.219971,1024.543213 2796.286377,1022.139099 2796.009766,1021.032227 
	C2795.553467,1019.208069 2793.675293,1017.155334 2791.889404,1016.402527 
	C2789.876953,1015.554382 2787.300293,1016.081970 2784.973877,1015.934326 
	C2776.678955,1015.408508 2768.294434,1015.439087 2760.112549,1014.171753 
	C2746.351807,1012.040283 2743.437988,1008.175537 2743.434082,994.315430 
	C2743.417725,938.003967 2743.427002,881.692444 2743.426758,825.380981 
	C2743.426758,822.477661 2743.426514,819.574341 2743.426514,815.978149 
	C2764.145020,816.278687 2783.400879,818.474243 2801.422607,827.281128 
	C2812.671631,832.778259 2820.528809,841.554321 2825.699219,852.806763 
	C2830.618652,863.511353 2832.606689,874.927673 2833.915527,886.557983 
	C2836.555908,910.025940 2838.860840,933.556396 2842.434082,956.888000 
	C2846.288330,982.054871 2859.391602,1002.388489 2879.729980,1017.389160 
	C2901.504639,1033.449219 2926.362549,1035.935425 2952.092285,1029.909302 
	C2965.722168,1026.717163 2971.501465,1018.042908 2970.396729,1005.338806 
	C2969.622070,996.429871 2964.253906,992.406616 2954.416260,993.362610 
	C2946.252930,994.155823 2942.563965,999.120483 2943.864502,1008.067444 
	C2944.375732,1011.583984 2945.563232,1015.002258 2946.435791,1018.437683 
	C2933.826172,1022.233215 2924.597168,1019.934509 2917.758789,1010.410095 
	C2914.339600,1005.647644 2911.305908,1000.051758 2910.060547,994.400391 
	C2907.423096,982.433777 2905.747559,970.222961 2904.263428,958.040955 
	C2901.080322,931.913879 2896.790527,906.083069 2888.126465,881.083984 
	C2878.579346,853.537659 2860.423096,834.203796 2833.264893,824.134399 
	C2819.324707,818.965759 2804.580322,815.970093 2790.217773,811.928040 
	C2788.691650,811.498474 2787.287842,810.634521 2783.723145,809.018005 
	C2788.101562,808.460938 2790.032715,808.314209 2791.924805,807.958557 
	C2805.963135,805.319824 2820.234619,803.522217 2833.970703,799.768982 
	C2855.491211,793.888916 2874.319092,782.913879 2889.973877,766.629333 
	C2921.622803,733.706482 2922.752197,667.651550 2872.812012,637.535095 
	C2856.548828,627.727600 2838.956787,622.416992 2820.290039,619.883423 
	C2801.680908,617.357605 2783.090332,618.929810 2764.451172,619.078674 
	C2725.821289,619.387146 2687.181152,618.441589 2648.545166,618.034241 
	C2645.560059,618.002808 2642.402588,617.581238 2639.646484,618.410095 
	C2637.807617,618.963074 2635.453125,621.340088 2635.337891,623.036865 
	C2635.234375,624.567444 2637.592529,627.223450 2639.340088,627.723572 
	C2643.119385,628.805176 2647.201416,628.837036 2651.162354,629.274109 
	C2658.751465,630.111572 2666.359375,630.804077 2673.926514,631.806152 
	C2678.744141,632.444214 2681.813965,635.424988 2682.533936,640.244629 
	C2683.365723,645.810486 2684.297363,651.431213 2684.336182,657.034058 
	C2684.535156,685.688232 2684.459961,714.344238 2684.480713,744.999695 
M730.829834,816.119141 
	C722.818542,813.367493 713.871887,813.751282 704.690918,809.480103 
	C719.962158,806.755005 733.522339,804.994629 746.747192,801.832275 
	C771.141052,795.999329 792.767395,784.904541 810.535583,766.637024 
	C841.728455,734.567505 843.364746,669.070801 795.896179,639.317383 
	C787.246704,633.895874 777.752869,629.410217 768.101013,626.080383 
	C744.421448,617.911255 719.778625,617.504761 695.009155,618.636780 
	C678.039673,619.412292 661.036377,619.996948 644.055481,619.845215 
	C619.065674,619.621887 594.082947,618.646179 569.095825,618.048035 
	C566.119629,617.976807 562.942444,617.686646 560.224121,618.593689 
	C558.513306,619.164490 556.763062,621.645142 556.418457,623.523682 
	C556.211060,624.654175 558.439453,627.061340 559.976501,627.508545 
	C563.123962,628.424255 566.538940,628.451294 569.851440,628.762756 
	C577.473450,629.479187 585.124146,629.952637 592.717651,630.892273 
	C599.461182,631.726746 603.582947,635.564148 604.224304,642.600403 
	C604.767517,648.559509 605.758240,654.519531 605.763306,660.479736 
	C605.855652,770.127747 605.836731,879.775818 605.800598,989.423889 
	C605.799194,993.746277 605.711548,998.113342 605.109680,1002.381348 
	C603.958435,1010.544373 602.157471,1012.664185 593.880188,1013.980042 
	C586.346069,1015.177795 578.656128,1015.377686 571.042419,1016.097778 
	C565.878662,1016.586182 560.320007,1016.019470 556.503845,1020.887756 
	C559.455322,1026.656250 564.794250,1025.982666 569.659180,1025.989746 
	C614.982422,1026.056641 660.305908,1026.037720 705.629272,1026.009033 
	C707.950012,1026.007568 710.520386,1026.250977 712.517944,1025.358398 
	C714.370422,1024.530762 716.740479,1022.363037 716.783936,1020.729675 
	C716.822693,1019.271301 714.232178,1017.133240 712.367004,1016.397827 
	C710.318176,1015.589844 707.770264,1016.076599 705.443176,1015.940186 
	C697.469299,1015.472900 689.418457,1015.520935 681.541138,1014.378357 
	C667.317139,1012.315186 663.945557,1008.098083 663.941772,994.123047 
	C663.926758,937.799255 663.934021,881.475464 663.933044,825.151672 
	C663.932983,822.245544 663.933044,819.339417 663.933044,815.993591 
	C679.955139,815.391785 694.564392,817.735229 709.042175,821.731750 
	C731.733215,827.995483 745.421326,842.860718 751.296692,865.272034 
	C752.641907,870.403198 753.493469,875.696167 754.162231,880.966797 
	C757.389099,906.398865 759.689636,931.975952 763.779663,957.265259 
	C771.763123,1006.627686 813.308594,1037.529785 863.055481,1031.675781 
	C869.491821,1030.918335 876.099915,1028.665649 881.836121,1025.615479 
	C890.130066,1021.205322 893.454041,1010.924011 890.751343,1002.292969 
	C888.403809,994.796021 881.977539,991.697327 873.052307,993.758911 
	C866.431641,995.288086 863.234802,1000.862671 864.877930,1008.469421 
	C865.620667,1011.907898 866.833069,1015.244995 867.832214,1018.627136 
	C853.719116,1022.439392 843.155518,1019.387268 836.936584,1008.107727 
	C832.690369,1000.406311 829.695862,991.604736 828.112732,982.935181 
	C825.306458,967.567749 824.253479,951.889648 822.002686,936.409058 
	C818.933105,915.296753 814.289429,894.573730 806.253357,874.669189 
	C797.606323,853.251099 782.986267,837.520020 762.188843,827.836609 
	C752.585999,823.365295 742.369629,820.211487 730.829834,816.119141 
M1622.702759,783.303406 
	C1618.204224,792.742615 1609.757568,796.182800 1600.279297,798.010498 
	C1574.592896,802.963379 1548.628052,802.668030 1522.651245,802.024597 
	C1522.159302,802.012451 1521.686279,801.238037 1521.615479,801.176514 
	C1521.615479,744.300110 1521.615479,687.795349 1521.615479,630.617737 
	C1528.948364,630.617737 1535.571167,630.430054 1542.180420,630.649536 
	C1574.461670,631.721436 1606.764404,632.449097 1639.007446,634.238037 
	C1654.797485,635.114136 1670.289917,638.737305 1680.623413,652.525818 
	C1684.982178,658.341919 1689.356812,664.505859 1691.962036,671.197754 
	C1696.648438,683.234436 1699.991821,695.793091 1703.927124,708.123779 
	C1705.033447,711.590332 1705.890503,715.200500 1707.499390,718.426819 
	C1709.609375,722.657654 1713.059326,723.878357 1718.700073,720.326172 
	C1715.844971,685.651245 1712.936890,650.333923 1710.034912,615.091553 
	C1698.776733,615.557922 1688.196411,616.358948 1677.614624,616.376770 
	C1597.642944,616.511536 1517.671021,616.492737 1437.699097,616.521240 
	C1434.366943,616.522400 1431.026489,616.363525 1427.704468,616.545044 
	C1420.192993,616.955750 1415.729004,619.318176 1416.689209,622.448730 
	C1418.340088,627.831421 1423.338257,627.111938 1427.525635,627.350037 
	C1434.841919,627.765991 1442.202271,627.616211 1449.489014,628.294434 
	C1458.538452,629.136658 1461.109253,631.798950 1462.048828,640.723145 
	C1462.570557,645.679810 1462.633423,650.701355 1462.634766,655.693787 
	C1462.665161,762.327332 1462.666138,868.960938 1462.635498,975.594482 
	C1462.633545,982.255676 1462.505127,988.927246 1462.119995,995.575684 
	C1461.317627,1009.423462 1458.021118,1012.692322 1443.860107,1014.035461 
	C1436.233521,1014.758911 1428.569946,1015.162903 1420.979370,1016.145996 
	C1419.105957,1016.388733 1416.426025,1017.991699 1415.912231,1019.558167 
	C1414.856201,1022.778137 1417.624023,1024.384766 1420.397583,1024.826904 
	C1423.988281,1025.399292 1427.660645,1025.667114 1431.300537,1025.694702 
	C1528.588379,1026.431030 1625.876831,1027.121338 1723.165161,1027.793213 
	C1724.401978,1027.801758 1725.641113,1027.469727 1726.582886,1027.338135 
	C1727.038452,1026.178467 1727.461548,1025.590698 1727.476929,1024.992310 
	C1728.286011,993.354553 1729.085815,961.716370 1729.792725,930.076172 
	C1729.851196,927.453552 1729.731567,924.632446 1728.810791,922.244507 
	C1728.082520,920.356201 1725.875366,917.596008 1724.541748,917.712158 
	C1722.394043,917.899048 1719.339722,919.714050 1718.605957,921.596436 
	C1717.068359,925.541077 1716.487793,929.946289 1716.052246,934.217285 
	C1714.388062,950.537354 1711.568115,966.535156 1703.857788,981.264282 
	C1696.087280,996.108398 1684.101807,1005.296570 1667.366333,1007.685242 
	C1660.448608,1008.672607 1653.456299,1009.501587 1646.480957,1009.660828 
	C1606.842651,1010.565918 1567.199463,1011.253479 1527.557373,1011.983154 
	C1525.610596,1012.018982 1523.658325,1011.756897 1521.490601,1011.619812 
	C1521.490601,946.116028 1521.490601,881.025085 1521.490601,814.953613 
	C1528.316406,814.953613 1534.571045,814.841858 1540.820190,814.975464 
	C1556.809326,815.317200 1572.817993,815.376892 1588.778198,816.272522 
	C1609.641113,817.443481 1621.989014,827.312012 1627.943604,847.247620 
	C1629.930054,853.897766 1630.786743,860.899048 1631.966553,867.773010 
	C1633.373657,875.971008 1634.533936,884.211121 1635.880737,892.419861 
	C1636.476685,896.051392 1638.201660,898.787109 1642.392700,898.514832 
	C1647.206665,898.202026 1648.237183,894.822510 1648.120728,890.780701 
	C1648.005615,886.785339 1647.862061,882.787720 1647.591553,878.800476 
	C1644.744995,836.859070 1644.734619,794.909241 1647.082275,752.946228 
	C1647.435791,746.627991 1647.637695,740.296814 1647.705444,733.969482 
	C1647.729980,731.678345 1647.763672,729.027588 1646.691162,727.181091 
	C1645.514038,725.154724 1643.236206,723.002991 1641.106689,722.581970 
	C1639.833984,722.330383 1637.073242,725.019958 1636.477173,726.869568 
	C1635.164062,730.943726 1634.635498,735.302124 1634.076904,739.582520 
	C1632.176758,754.140198 1629.746826,768.551331 1622.702759,783.303406 
M2243.000000,1025.870239 
	C2255.659912,1025.946045 2268.319824,1026.046387 2280.979736,1026.084106 
	C2285.351562,1026.097168 2289.767090,1026.036377 2291.426025,1020.741882 
	C2289.783447,1016.331787 2286.197754,1016.066467 2282.385498,1016.066711 
	C2276.056641,1016.067017 2269.711426,1016.217407 2263.401855,1015.834839 
	C2246.621338,1014.817200 2240.072510,1007.880615 2239.906982,991.355957 
	C2239.883789,989.024292 2239.960938,986.691711 2239.967285,984.359497 
	C2240.096191,937.386108 2240.225342,890.412720 2240.345459,843.439331 
	C2240.366699,835.207031 2240.348633,826.974609 2240.348633,818.156250 
	C2260.570312,816.913574 2279.817627,816.121155 2299.048096,817.787964 
	C2307.617920,818.530701 2316.154541,820.154541 2324.574219,821.986938 
	C2333.273193,823.880005 2339.580811,829.469727 2342.782227,837.636353 
	C2345.794434,845.320374 2348.310059,853.312805 2349.955078,861.391418 
	C2352.141113,872.125916 2353.193848,883.087646 2354.895996,893.926208 
	C2355.509033,897.830078 2357.250977,900.938354 2362.050049,900.486694 
	C2366.894775,900.030701 2367.902832,896.710083 2367.648926,892.690552 
	C2367.292969,887.053650 2366.580078,881.437561 2366.290527,875.798584 
	C2363.878662,828.845764 2364.290039,781.909668 2367.181152,734.986938 
	C2367.321533,732.709473 2367.223389,730.152161 2366.305176,728.152832 
	C2365.466309,726.325806 2363.474609,724.047241 2361.785889,723.864807 
	C2360.066650,723.679016 2357.096924,725.400146 2356.440430,727.007446 
	C2354.965332,730.619080 2354.239258,734.640503 2353.819336,738.560486 
	C2352.401123,751.806519 2350.824219,764.995422 2345.855957,777.505005 
	C2341.533203,788.388184 2334.480225,796.301331 2322.387939,798.312195 
	C2312.231934,800.000977 2302.066406,802.040100 2291.825684,802.717224 
	C2274.988770,803.830505 2258.087402,803.967590 2240.873535,804.527222 
	C2240.873535,746.763245 2240.873535,690.335144 2240.873535,633.400818 
	C2248.360107,632.952881 2255.316895,632.229126 2262.279053,632.175293 
	C2287.264404,631.982117 2312.252686,631.853394 2337.237305,632.057739 
	C2345.193604,632.122803 2353.173828,633.035889 2361.086182,634.018982 
	C2385.185303,637.013000 2402.837158,649.425354 2412.189209,671.864624 
	C2417.137939,683.738342 2419.964355,696.500244 2423.675781,708.883179 
	C2424.531006,711.737000 2424.893799,714.744507 2425.827393,717.567383 
	C2427.016357,721.161743 2428.774414,724.747803 2433.442627,723.777588 
	C2437.449707,722.944763 2438.050293,719.387268 2438.051514,715.913269 
	C2438.052734,712.919189 2437.931641,709.913452 2437.652344,706.932739 
	C2434.954590,678.119934 2432.231201,649.309570 2429.443115,620.505493 
	C2429.234863,618.354736 2428.474854,616.257446 2428.037354,614.413330 
	C2411.935791,615.424255 2396.691650,617.088440 2381.434814,617.212524 
	C2326.132080,617.662659 2270.825195,617.654968 2215.519775,617.696228 
	C2192.530762,617.713379 2169.541504,617.339661 2146.552490,617.309998 
	C2138.798096,617.299988 2135.786133,619.244568 2135.820557,623.359558 
	C2135.854736,627.447327 2139.081055,629.418823 2146.479736,629.895752 
	C2153.781494,630.366394 2161.132568,630.470581 2168.371338,631.423645 
	C2177.736328,632.656677 2180.177246,635.441772 2181.438965,644.808289 
	C2181.748047,647.104797 2181.647461,649.463196 2181.649414,651.793274 
	C2181.746582,762.410645 2181.840820,873.028076 2181.901611,983.645447 
	C2181.904541,988.971436 2181.993896,994.346008 2181.351562,999.613525 
	C2180.025146,1010.488220 2177.913574,1012.552246 2167.091064,1014.023499 
	C2160.170898,1014.964294 2153.163086,1015.258972 2146.239990,1016.181885 
	C2141.855713,1016.766296 2136.921143,1016.730713 2134.438477,1021.687500 
	C2137.564941,1027.182617 2142.576660,1026.063965 2147.042236,1026.062988 
	C2178.361572,1026.056274 2209.680664,1025.946777 2243.000000,1025.870239 
M1989.345093,703.201294 
	C1985.661865,678.368469 1985.018799,653.461121 1987.409424,628.466736 
	C1987.852783,623.830811 1988.456665,619.122498 1988.045166,614.532043 
	C1987.857666,612.441284 1985.368774,608.932617 1983.940063,608.940735 
	C1981.521118,608.954468 1978.355591,610.705444 1976.906128,612.729858 
	C1975.284424,614.994873 1975.038208,618.344360 1974.521118,621.279602 
	C1973.511597,627.008789 1969.697632,629.292969 1964.524414,628.677063 
	C1958.961792,628.014893 1953.405151,626.732666 1948.042358,625.082642 
	C1937.566528,621.859619 1927.375488,617.640991 1916.806030,614.804871 
	C1872.529175,602.923950 1827.998657,618.091125 1801.127808,653.924500 
	C1784.375244,676.264893 1778.645996,701.778137 1779.838135,729.223816 
	C1780.957397,754.989746 1789.998535,777.416321 1809.196167,794.879089 
	C1818.511108,803.352295 1828.633057,811.173950 1839.268555,817.900818 
	C1853.013306,826.594299 1867.491821,834.175415 1881.919434,841.729492 
	C1899.656128,851.016174 1916.965454,860.869690 1932.193604,874.024475 
	C1947.013550,886.826782 1957.222900,902.473755 1961.175171,921.796875 
	C1964.637329,938.724121 1964.119385,955.663696 1959.166138,972.214844 
	C1952.828857,993.390259 1939.198120,1008.037231 1918.120117,1015.216187 
	C1871.758667,1031.006348 1824.289795,1010.792419 1803.511963,966.481812 
	C1801.398926,961.975647 1799.284546,957.379578 1797.977173,952.604492 
	C1794.996460,941.716553 1792.542847,930.685059 1789.821289,919.725159 
	C1788.624146,914.903687 1787.748657,909.919922 1785.807007,905.405701 
	C1785.016846,903.569031 1781.859619,901.925415 1779.638428,901.720337 
	C1776.202393,901.403137 1774.289551,904.114746 1774.066895,907.465881 
	C1773.846802,910.778809 1773.825562,914.135925 1774.085449,917.444763 
	C1776.415283,947.103271 1775.860962,976.692078 1772.201294,1006.221558 
	C1771.464722,1012.163940 1770.675415,1018.108521 1770.239502,1024.076172 
	C1769.963501,1027.853027 1770.409546,1031.634155 1775.383301,1032.285156 
	C1779.666016,1032.845703 1782.382935,1030.643066 1783.576782,1025.413208 
	C1784.314453,1022.182007 1784.413330,1018.788757 1785.312256,1015.613586 
	C1787.664795,1007.304749 1790.129028,1005.748291 1798.270996,1007.900757 
	C1803.061279,1009.166992 1807.628296,1011.272827 1812.302368,1012.983154 
	C1823.531372,1017.092041 1834.570801,1021.857910 1846.028442,1025.180420 
	C1902.691406,1041.611694 1958.229736,1024.148315 1993.089233,979.875854 
	C2022.949829,941.952271 2030.056030,876.642090 1981.473022,833.697266 
	C1973.507812,826.656494 1965.263916,819.717102 1956.310425,814.057068 
	C1941.711426,804.828491 1926.445435,796.651367 1911.417969,788.105835 
	C1894.946899,778.739441 1878.076904,770.019409 1862.020874,759.992493 
	C1843.597412,748.487061 1832.490601,731.305847 1828.742188,709.913452 
	C1826.373535,696.394897 1826.522461,682.720764 1829.874512,669.235535 
	C1836.266479,643.522278 1854.125244,627.268066 1880.373901,623.359436 
	C1902.888672,620.006775 1922.524780,626.624878 1939.708984,640.973450 
	C1957.408447,655.752197 1968.739136,674.565063 1974.113770,696.995605 
	C1975.350220,702.155701 1976.343750,707.485657 1978.502441,712.261475 
	C1979.445557,714.348267 1982.987427,716.301636 1985.441406,716.421326 
	C1989.152710,716.602356 1989.940063,713.212585 1989.745117,709.912537 
	C1989.646851,708.249451 1989.572266,706.585083 1989.345093,703.201294 
M513.386108,978.817444 
	C514.308289,952.523926 515.241455,926.230835 516.137695,899.936462 
	C516.239502,896.948364 516.648438,893.824890 515.944153,891.006775 
	C515.478638,889.143677 513.445557,886.647461 511.806030,886.388794 
	C510.140442,886.126038 507.031189,887.846375 506.416107,889.424133 
	C504.500427,894.338135 503.190582,899.540100 502.139648,904.730347 
	C497.957306,925.386414 491.415039,945.233887 481.840302,964.007690 
	C469.649139,987.911804 450.723999,1004.584900 425.665039,1013.825867 
	C386.976318,1028.093262 330.007324,1022.913513 293.702972,976.041443 
	C278.805328,956.807495 268.311493,935.381104 262.163208,911.993530 
	C247.239288,855.223999 247.241211,798.068481 259.460175,740.859741 
	C266.163605,709.474487 278.909576,680.808105 299.978424,656.211121 
	C314.164917,639.648987 331.902802,629.035339 353.491028,625.862427 
	C363.961731,624.323547 374.746796,623.548340 385.293182,624.141296 
	C427.900970,626.537170 458.542511,647.046692 473.897095,687.230835 
	C480.257141,703.875488 483.227570,721.814148 487.762787,739.158264 
	C488.515045,742.035278 488.798950,745.282410 490.390472,747.613464 
	C491.649475,749.457397 494.806427,751.376099 496.708008,751.025269 
	C498.609863,750.674500 500.926392,747.754272 501.409851,745.591309 
	C502.266113,741.760559 501.955933,737.650879 501.987640,733.656738 
	C502.270447,698.021118 501.993164,662.350708 509.299072,627.194458 
	C509.916595,624.222900 510.489990,620.353699 506.742462,619.724854 
	C504.536438,619.354675 501.013428,621.311035 499.529663,623.300293 
	C496.378662,627.524780 494.265503,632.509216 491.559967,637.083374 
	C487.030792,644.740784 483.370331,646.172546 474.986603,642.736145 
	C469.474335,640.476807 464.273529,637.429138 459.016876,634.580322 
	C445.257782,627.123657 431.509308,619.310852 416.065765,616.189209 
	C378.472473,608.590576 341.070862,609.525208 304.921600,623.206543 
	C254.937820,642.123901 221.905136,678.601379 201.936249,727.253723 
	C184.688858,769.275391 182.285629,813.198486 187.749405,857.839355 
	C198.712708,947.413330 273.399719,1035.921387 388.713165,1032.381348 
	C423.524048,1031.312500 454.672760,1021.067810 481.857635,999.143921 
	C483.331879,997.955078 485.013550,997.023499 487.310577,995.499939 
	C490.833893,1000.530396 494.347961,1004.949402 497.182739,1009.767944 
	C499.871094,1014.337585 501.732391,1019.385742 504.179718,1024.108276 
	C505.733307,1027.106201 508.124359,1030.488647 511.697388,1028.910645 
	C513.686401,1028.032104 514.675476,1024.272949 515.515015,1021.621826 
	C516.090820,1019.803589 515.735474,1017.652405 515.621338,1015.660095 
	C514.954834,1004.023132 514.236694,992.389038 513.386108,978.817444 
M2574.983154,618.101196 
	C2539.347900,618.001953 2503.712891,617.902771 2468.077637,617.803040 
	C2465.746582,617.796570 2463.415039,617.744690 2461.084961,617.786133 
	C2457.900146,617.842712 2454.729492,618.543274 2454.498779,622.304138 
	C2454.254639,626.287537 2457.907959,626.820007 2460.732910,627.437195 
	C2463.305176,627.999207 2466.032471,627.809448 2468.673828,628.106445 
	C2475.612549,628.886780 2482.570801,629.562805 2489.465576,630.638123 
	C2495.928223,631.646057 2499.271729,635.807983 2499.641113,642.284546 
	C2499.944824,647.602966 2500.294922,652.929565 2500.296875,658.252625 
	C2500.335938,766.170410 2500.341797,874.088135 2500.291260,982.005920 
	C2500.288330,987.989929 2500.148682,994.029541 2499.346924,999.944885 
	C2498.041504,1009.574707 2495.839355,1011.612244 2486.199463,1013.388367 
	C2483.269043,1013.928284 2480.241455,1013.933594 2477.259277,1014.195557 
	C2471.953125,1014.661499 2466.628662,1014.986877 2461.349121,1015.663147 
	C2458.129150,1016.075500 2453.852539,1016.327759 2454.035156,1020.747009 
	C2454.235840,1025.602905 2458.629639,1025.788696 2462.326904,1025.815308 
	C2467.985840,1025.855835 2473.655518,1025.784668 2479.304932,1025.473633 
	C2517.907471,1023.348328 2556.499756,1023.001343 2595.090576,1025.771851 
	C2597.715820,1025.960327 2600.634766,1026.125366 2602.951904,1025.171387 
	C2604.620850,1024.484131 2606.246338,1022.010803 2606.485352,1020.153076 
	C2606.631836,1019.017151 2604.334473,1016.924072 2602.746338,1016.365601 
	C2600.634766,1015.623108 2598.124023,1016.110840 2595.821045,1015.800232 
	C2587.269775,1014.646851 2578.718018,1013.477966 2570.196045,1012.129761 
	C2563.569824,1011.081421 2560.642578,1006.686707 2560.375732,1000.292358 
	C2560.083984,993.305298 2559.712646,986.313538 2559.709961,979.323730 
	C2559.667480,872.072083 2559.670654,764.820496 2559.705566,657.568848 
	C2559.707031,652.579712 2559.800293,647.555237 2560.380859,642.609375 
	C2561.423340,633.723083 2563.947021,631.188721 2572.960449,630.004272 
	C2579.885254,629.094238 2586.899414,628.869568 2593.829102,627.989685 
	C2597.418213,627.533997 2601.133057,626.795593 2604.374023,625.288025 
	C2606.819580,624.150452 2607.074219,621.164185 2604.454346,619.704468 
	C2602.267822,618.486145 2599.487061,617.890686 2596.950439,617.832214 
	C2590.296875,617.678833 2583.632568,617.969299 2574.983154,618.101196 
M1009.629883,879.000122 
	C1009.630798,806.337585 1009.615845,733.675110 1009.660583,661.012573 
	C1009.664490,654.685913 1009.682739,648.318237 1010.368347,642.043213 
	C1011.281494,633.684875 1013.909058,631.075073 1022.292175,629.900146 
	C1029.212769,628.930237 1036.249268,628.798889 1043.178833,627.878296 
	C1047.867065,627.255432 1053.257446,627.741394 1056.239502,622.583191 
	C1054.096191,616.818665 1049.296997,617.869141 1045.186523,617.863037 
	C1001.860840,617.798218 958.534912,617.824097 915.209045,617.835815 
	C913.211731,617.836365 910.977600,617.400085 909.280884,618.142822 
	C907.430176,618.952942 905.662231,620.688538 904.749451,622.475891 
	C904.459045,623.044556 906.790833,625.786682 908.324768,626.277405 
	C911.439575,627.273804 914.818420,627.498535 918.106567,627.887939 
	C924.713379,628.670410 931.395935,628.992981 937.930847,630.158203 
	C947.026611,631.779968 949.181519,634.257385 949.833313,643.370483 
	C950.355896,650.677429 950.528442,658.023010 950.531494,665.351501 
	C950.574158,769.012085 950.568359,872.672729 950.542114,976.333313 
	C950.540649,981.997070 950.337830,987.664551 950.071594,993.322937 
	C949.931152,996.307007 949.492004,999.280334 949.115662,1002.249390 
	C948.351013,1008.281189 945.104553,1012.027039 938.936462,1012.777100 
	C932.998901,1013.499084 927.030518,1013.967102 921.091248,1014.676697 
	C916.475830,1015.228027 911.808777,1015.681824 907.327576,1016.820251 
	C905.957703,1017.168274 904.522034,1019.549072 904.275085,1021.174927 
	C904.124634,1022.165161 905.980408,1024.046753 907.303223,1024.539917 
	C909.415588,1025.327271 911.832642,1025.538574 914.124146,1025.555664 
	C919.453979,1025.595337 924.794678,1025.532104 930.115356,1025.232666 
	C968.410095,1023.077576 1006.694763,1022.971741 1044.975708,1025.548706 
	C1046.963867,1025.682495 1049.216919,1026.092529 1050.908691,1025.360962 
	C1053.063354,1024.429321 1056.099854,1022.683472 1056.394653,1020.898438 
	C1057.010132,1017.173462 1053.796753,1016.224304 1050.463989,1015.981628 
	C1043.160400,1015.449646 1035.837158,1014.977905 1028.582642,1014.020935 
	C1012.430603,1011.890625 1010.608643,1009.798950 1009.966431,993.989746 
	C1009.858215,991.325684 1009.755005,988.659058 1009.751099,985.993530 
	C1009.700073,950.995789 1009.667236,915.997986 1009.629883,879.000122 
M463.912170,456.396057 
	C463.920349,439.072632 463.831146,421.748383 463.971222,404.426025 
	C464.063568,393.003723 464.447815,392.819031 475.654541,392.052399 
	C477.911133,391.898010 480.124542,391.112457 484.064819,390.239868 
	C481.368439,388.515961 480.588287,387.583313 479.801300,387.577606 
	C460.826599,387.438782 441.851196,387.379181 422.876068,387.411865 
	C422.091461,387.413239 421.308655,388.446777 419.621796,389.636383 
	C422.486664,390.514069 424.632996,391.848480 426.651550,391.677185 
	C437.515747,390.754974 438.829559,392.417572 439.456238,405.316040 
	C439.537018,406.978424 439.507050,408.646820 439.507141,410.312439 
	C439.509460,451.622803 439.515961,492.933167 439.495636,534.243530 
	C439.494019,537.572144 439.252136,540.899963 439.214813,544.229248 
	C439.154785,549.580017 436.510193,551.925964 431.159790,552.162109 
	C427.628448,552.318054 424.139465,553.433350 420.631531,554.119080 
	C420.726929,554.923584 420.822327,555.728088 420.917755,556.532532 
	C427.638672,558.047852 434.574432,557.166870 441.404968,557.282104 
	C448.727905,557.405701 456.058044,557.125549 463.380219,557.268311 
	C477.928986,557.551819 477.927612,557.621765 483.103760,554.273499 
	C480.494965,553.521240 478.361542,552.644775 476.146393,552.311035 
	C464.252258,550.518860 464.067566,550.566589 463.990845,538.941040 
	C463.845795,516.954224 463.911346,494.965912 463.947174,472.978333 
	C463.949677,471.450195 464.429382,469.922882 464.644806,468.646240 
	C489.140106,468.646240 512.974060,468.646240 537.099182,468.646240 
	C537.099182,493.858826 537.152283,518.495056 537.026917,543.130493 
	C537.012451,545.968994 536.004028,548.802429 535.521790,551.299988 
	C529.106995,552.371765 523.663940,553.281189 516.931519,554.406067 
	C519.039795,556.154968 519.765198,557.282043 520.492493,557.283325 
	C539.464478,557.316895 558.436890,557.262329 577.408142,557.095825 
	C578.485474,557.086365 579.553345,555.994812 582.972107,554.120239 
	C577.888611,553.299927 575.169006,552.724365 572.419312,552.441772 
	C562.341125,551.405884 562.227051,551.339417 561.862488,540.919250 
	C561.769348,538.256653 561.782104,535.589661 561.781860,532.924683 
	C561.778076,491.614319 561.778503,450.303925 561.784851,408.993561 
	C561.785278,406.328735 561.752258,403.659271 561.889832,400.999969 
	C562.300476,393.059448 562.693604,392.740387 570.455566,391.981415 
	C573.829773,391.651520 577.707886,392.579468 580.265930,388.837006 
	C571.508606,386.383392 524.453918,386.857117 518.316650,389.360901 
	C518.595459,389.937744 518.756287,390.893768 519.174133,391.023773 
	C520.724670,391.506165 522.347717,391.887238 523.965149,392.001862 
	C536.150574,392.865509 536.607300,392.830536 536.945984,405.367950 
	C537.422607,423.010834 537.160034,440.674164 537.134583,458.328644 
	C537.133301,459.188324 536.374939,460.046906 535.660278,461.559906 
	C513.210083,461.559906 490.606812,461.616302 468.005707,461.420349 
	C466.644836,461.408569 465.301422,459.384796 463.912170,456.396057 
M595.097534,554.026428 
	C595.569092,555.241577 595.859436,557.373108 596.544617,557.508728 
	C599.123230,558.018799 601.830322,557.965088 604.489502,557.968994 
	C634.151062,558.012939 663.812561,558.029907 693.474121,558.049866 
	C703.404968,558.056519 713.335876,558.050903 723.242249,558.050903 
	C725.745911,541.610596 725.386169,517.442017 722.291992,512.083435 
	C718.198914,516.510986 718.968994,522.086243 718.015503,527.069641 
	C715.591614,539.737915 709.207642,550.632080 693.030762,550.527405 
	C677.058655,550.424072 661.080566,551.426697 645.102478,551.842957 
	C642.915039,551.899902 640.712280,551.372192 638.629700,551.128418 
	C638.629700,523.951782 638.629700,497.423737 638.629700,470.477264 
	C648.349487,470.477264 657.618652,470.055817 666.830200,470.603699 
	C674.960266,471.087250 680.359497,475.811829 682.329895,483.890045 
	C683.192871,487.427826 683.606018,491.072876 684.336914,494.645996 
	C685.024231,498.006226 685.861023,501.335846 686.818604,505.488037 
	C688.983459,503.997986 690.380066,503.488403 690.383606,502.969391 
	C690.538025,480.071014 690.593384,457.171753 690.533997,434.272919 
	C690.531494,433.292450 689.332214,432.315063 688.338989,430.800171 
	C684.757385,434.008026 685.204712,437.869568 684.386902,441.195618 
	C683.515564,444.739777 682.972168,448.366547 682.050049,451.895752 
	C680.475464,457.922668 676.770020,461.388580 670.373474,462.623627 
	C659.847046,464.656128 649.387085,464.120300 638.806763,464.034271 
	C638.806763,439.997345 638.806763,416.880829 638.806763,394.296082 
	C655.107300,394.296082 670.750977,393.968964 686.373718,394.400177 
	C698.743713,394.741577 706.780579,401.521240 710.500305,413.301300 
	C711.899780,417.733307 712.873291,422.311310 714.478577,426.661255 
	C715.132812,428.434021 716.949646,429.777740 718.237549,431.316650 
	C718.978027,431.046509 719.718506,430.776367 720.458984,430.506226 
	C719.329895,415.874603 718.200867,401.242981 717.097900,386.950195 
	C708.617310,386.950195 701.000671,386.943176 693.384033,386.951447 
	C663.390320,386.984100 633.396484,386.997742 603.402954,387.093872 
	C600.398926,387.103485 596.959473,386.196930 593.320007,390.932892 
	C598.517517,391.382660 602.285583,391.998322 606.047546,391.963654 
	C611.178711,391.916443 613.294739,394.575317 613.554810,399.247101 
	C613.702759,401.905853 613.638550,404.577423 613.638794,407.243225 
	C613.642578,449.903625 613.645813,492.564026 613.638916,535.224426 
	C613.636230,552.038269 613.624817,552.038269 595.097534,554.026428 
M315.433533,393.664734 
	C319.666382,393.664734 323.899231,393.664734 328.645630,393.664734 
	C328.786713,396.286133 328.979462,398.204865 328.980133,400.123657 
	C328.996094,445.769501 328.994507,491.415375 328.980164,537.061218 
	C328.979523,539.057861 328.915955,541.062744 328.730560,543.049683 
	C328.009552,550.777222 327.405579,551.289062 319.855530,552.239746 
	C315.954468,552.731018 312.093719,553.542664 308.214722,554.209534 
	C309.612274,556.508057 310.803223,557.222595 312.000000,557.232483 
	C331.649841,557.395020 351.300415,557.505188 370.950562,557.468689 
	C372.083008,557.466553 373.212952,556.109009 374.344055,555.382263 
	C370.600677,553.066101 367.137299,552.563232 363.661499,552.170654 
	C356.434845,551.354492 354.567200,549.528076 353.867523,542.217102 
	C353.677673,540.233276 353.726532,538.223328 353.726227,536.225342 
	C353.718842,491.245850 353.710876,446.266357 353.742828,401.286896 
	C353.744659,398.733032 354.086182,396.179443 354.295563,393.263947 
	C359.490295,392.905884 364.130768,392.224823 368.753571,392.329041 
	C390.215363,392.813171 399.500427,401.349182 402.313629,422.662872 
	C402.701111,425.598541 403.263947,428.623169 404.453949,431.290588 
	C404.999420,432.513367 407.261932,432.970215 410.407471,434.674927 
	C408.993927,417.541534 407.726074,402.174225 406.484589,387.126099 
	C363.070648,387.126099 320.830414,387.126099 277.337708,387.126099 
	C276.343597,401.305023 275.305328,415.153351 274.518677,429.015930 
	C274.450012,430.226074 276.035645,431.530121 277.079956,433.140839 
	C281.535767,430.153809 280.816772,425.848480 281.879333,422.222748 
	C283.545685,416.536621 284.912781,410.580750 287.705383,405.445374 
	C293.197418,395.345947 303.154602,393.762054 315.433533,393.664734 
z"/>
<path fill="#030404" opacity="1.000000" stroke="none" 
	d="
M1526.473145,203.391144 
	C1523.753174,199.724365 1521.033203,196.057556 1517.661377,191.511902 
	C1428.140869,201.870956 1337.795166,212.325516 1247.018311,222.829956 
	C1247.512817,235.673752 1247.808594,247.881561 1248.491089,260.067657 
	C1249.643799,280.647827 1251.046265,301.213959 1252.334839,321.786530 
	C1254.080200,349.652069 1255.894653,377.513519 1257.530273,405.385498 
	C1258.602173,423.650299 1259.294556,441.937286 1260.362549,460.202332 
	C1262.011597,488.405609 1263.922241,516.593689 1265.557983,544.797668 
	C1266.636353,563.394958 1267.294067,582.016785 1268.377930,600.613708 
	C1269.983154,628.154846 1271.890503,655.678345 1273.494263,683.219543 
	C1274.596558,702.150024 1275.380859,721.098999 1276.358276,740.036987 
	C1276.546387,743.680298 1276.898560,747.319397 1277.303589,750.946106 
	C1278.088135,757.971069 1277.607056,764.292480 1273.595581,770.869141 
	C1267.393066,781.037537 1265.116333,791.766113 1275.747314,801.532471 
	C1277.630005,803.262085 1277.705200,807.674377 1277.545410,810.793030 
	C1276.677246,827.724792 1275.330933,844.631714 1274.422485,861.561829 
	C1273.370483,881.166626 1272.610596,900.787048 1271.708130,920.399963 
	C1270.792847,940.295410 1269.858643,960.190002 1268.887573,981.058411 
	C1274.942017,981.964111 1281.036987,982.810608 1287.109497,983.795654 
	C1312.773315,987.958313 1338.061646,993.663879 1361.867310,1004.385681 
	C1368.443604,1007.347473 1374.353516,1011.931152 1380.224121,1016.240723 
	C1382.292603,1017.759155 1383.330200,1020.681763 1385.081787,1023.331299 
	C1374.162476,1026.169434 1094.141846,1025.919800 1085.441162,1022.957947 
	C1088.276611,1019.696289 1090.257080,1016.007874 1093.340454,1014.141785 
	C1101.818359,1009.010803 1110.390747,1003.685120 1119.586060,1000.157227 
	C1145.753418,990.117554 1173.104248,984.652954 1201.613159,981.396606 
	C1201.613159,974.762634 1201.868408,968.220276 1201.568481,961.703430 
	C1200.345215,935.120972 1199.005859,908.543457 1197.605469,881.969604 
	C1196.432739,859.716614 1195.142822,837.469604 1193.846436,815.223389 
	C1193.460571,808.600403 1193.280640,802.717773 1198.832520,797.079956 
	C1204.428589,791.397217 1204.103638,782.655823 1199.921631,776.489685 
	C1191.392456,763.913330 1193.889893,750.392090 1194.463135,737.021484 
	C1195.445557,714.101807 1196.939087,691.202393 1198.375732,668.304321 
	C1200.019897,642.099487 1201.938599,615.911682 1203.541870,589.704468 
	C1204.638550,571.776306 1205.291260,553.821289 1206.336060,535.889587 
	C1207.979126,507.684753 1209.869873,479.494354 1211.492432,451.288422 
	C1212.581421,432.358063 1213.248169,413.403320 1214.354614,394.474121 
	C1215.945068,367.265747 1217.848999,340.075775 1219.455444,312.868286 
	C1220.553711,294.270905 1221.345459,275.655640 1222.327759,257.051208 
	C1222.836060,247.425049 1223.485352,237.806396 1224.009277,228.181000 
	C1224.095215,226.601974 1223.862061,225.005554 1223.743652,222.808182 
	C1133.320923,212.339615 1043.289917,201.916382 953.348816,191.503571 
	C950.770996,194.971497 948.438965,198.108749 945.141357,201.889618 
	C942.110901,203.350571 940.045959,204.167908 937.487244,204.904922 
	C936.662720,204.868317 936.332031,204.912048 935.458008,204.641739 
	C932.175598,203.626022 929.436523,202.924332 926.697449,202.222656 
	C923.166321,197.752258 919.681396,193.210144 920.499939,187.026031 
	C921.334534,180.721237 926.460571,175.182449 932.499695,173.749878 
	C939.343506,172.126419 945.929382,174.751190 949.705750,180.802872 
	C950.903076,182.721680 951.691895,184.895432 952.667542,186.952209 
	C1041.971558,186.952209 1130.801636,186.952209 1221.340088,186.952209 
	C1211.279175,178.424896 1204.275513,169.614822 1206.108398,156.767960 
	C1207.194580,149.153961 1210.748291,142.996277 1216.774170,138.260284 
	C1229.096191,128.575836 1248.258057,130.379044 1258.325562,142.151398 
	C1269.551147,155.277924 1267.203369,170.440857 1251.614990,185.491333 
	C1258.287354,187.720657 1498.595947,188.697723 1518.581543,186.531891 
	C1519.307861,184.956512 1519.981445,183.111710 1520.957642,181.443893 
	C1525.285400,174.049698 1534.290161,171.159515 1541.579712,174.737640 
	C1548.940063,178.350525 1552.424072,187.285934 1549.280151,195.126938 
	C1548.434814,197.235245 1546.779907,199.018951 1544.471191,201.642853 
	C1540.990723,203.237320 1538.535645,204.140625 1535.468262,204.934784 
	C1534.052612,204.993835 1533.249023,205.162018 1531.973145,204.894104 
	C1529.824829,204.102386 1528.148926,203.746765 1526.473145,203.391144 
z"/>
<path fill="#050505" opacity="1.000000" stroke="none" 
	d="
M3024.605713,637.306091 
	C3014.125977,630.902466 3002.882568,631.527039 2992.073242,630.086121 
	C2988.785889,629.647949 2985.336670,629.719666 2982.260254,628.676514 
	C2980.470703,628.069763 2978.101807,625.692322 2978.129395,624.149780 
	C2978.158936,622.500183 2980.416016,620.054077 2982.204346,619.452026 
	C2985.593262,618.311340 2989.340332,617.806335 2992.941406,617.791809 
	C3022.923340,617.671570 3052.906250,617.723572 3083.881104,617.723572 
	C3121.213379,715.231873 3157.044678,813.335693 3193.719238,913.335449 
	C3225.552246,813.469788 3256.685791,715.798462 3287.986816,617.601257 
	C3291.915771,617.601257 3295.212646,617.612000 3298.509277,617.599548 
	C3326.837402,617.492798 3355.165527,617.345886 3383.493652,617.310547 
	C3387.812988,617.305115 3392.158691,617.605408 3396.444092,618.145996 
	C3399.788330,618.567810 3402.484131,620.980042 3401.605957,624.193848 
	C3400.985596,626.464539 3398.194092,628.864807 3395.828125,629.743652 
	C3393.176758,630.728638 3389.876953,629.789124 3386.921387,630.168640 
	C3378.047852,631.308105 3369.098389,632.200195 3360.382080,634.115479 
	C3353.236084,635.685791 3349.095947,640.711792 3348.843750,648.413940 
	C3348.494873,659.064636 3347.752686,669.712830 3347.742432,680.362671 
	C3347.645752,782.011719 3347.648193,883.661011 3347.709961,985.310120 
	C3347.713379,990.943787 3348.273926,996.603699 3348.967529,1002.202759 
	C3349.652344,1007.733521 3352.784180,1011.457825 3358.567871,1012.042603 
	C3368.482910,1013.045166 3378.422852,1013.800537 3388.352783,1014.656677 
	C3392.326660,1014.999329 3396.447998,1014.813110 3400.216797,1015.878113 
	C3402.296631,1016.465942 3403.785156,1019.146912 3405.540283,1020.884399 
	C3403.737549,1022.608276 3402.208740,1025.129028 3400.066406,1025.865356 
	C3397.011475,1026.915527 3393.505615,1026.932007 3390.194580,1026.916748 
	C3341.874512,1026.693481 3293.554688,1026.395874 3245.234863,1026.099731 
	C3240.919434,1026.073364 3236.144775,1026.489014 3234.224121,1021.423157 
	C3233.041260,1018.303650 3236.964844,1015.971863 3244.932373,1015.259460 
	C3251.232178,1014.696228 3257.568604,1014.544006 3263.888428,1014.202576 
	C3266.549072,1014.058899 3269.270996,1014.209351 3271.858643,1013.693054 
	C3287.262695,1010.618896 3288.865479,1010.966431 3289.651611,994.118713 
	C3290.117188,984.137085 3290.119629,974.128174 3290.122803,964.131470 
	C3290.153564,870.814148 3290.138916,777.496887 3290.137695,684.179565 
	C3290.137695,680.601807 3290.137939,677.024048 3290.137939,673.446289 
	C3289.686523,673.328247 3289.234863,673.210266 3288.783447,673.092224 
	C3287.779785,675.695557 3286.658691,678.260254 3285.789795,680.907776 
	C3251.773193,784.537781 3218.771484,888.484802 3188.224121,993.199219 
	C3186.363770,999.575867 3184.219727,1005.883301 3181.887207,1012.102661 
	C3180.786133,1015.038513 3178.925781,1017.689636 3177.138916,1020.966125 
	C3170.631348,1017.228699 3169.531250,1011.470947 3167.718262,1006.319092 
	C3159.108643,981.850220 3150.965332,957.212708 3142.056152,932.854553 
	C3112.585693,852.280334 3082.861328,771.799011 3053.201416,691.294189 
	C3052.333740,688.939087 3051.094971,686.720581 3049.275146,682.823486 
	C3048.703857,685.357605 3048.390869,686.092834 3048.394043,686.826721 
	C3048.805664,788.472107 3049.238281,890.117493 3049.683350,991.762756 
	C3049.696289,994.760498 3049.748535,997.764771 3049.960205,1000.753479 
	C3050.477051,1008.057861 3051.776123,1010.429688 3058.907227,1011.845337 
	C3066.348389,1013.322510 3074.058838,1013.483887 3081.661621,1014.092163 
	C3087.510010,1014.560059 3093.630371,1014.038147 3098.940186,1020.132202 
	C3096.760986,1021.845703 3095.072754,1023.929138 3092.920654,1024.676025 
	C3090.167969,1025.631470 3086.995850,1026.027588 3084.082764,1025.772583 
	C3053.094971,1023.058716 3022.139404,1026.421265 2991.170410,1026.083740 
	C2986.654297,1026.034424 2981.595215,1027.190552 2978.737061,1021.377808 
	C2980.191406,1016.849609 2984.340088,1016.396179 2988.178955,1016.040039 
	C2997.122070,1015.210327 3006.088623,1014.551941 3015.060059,1014.126770 
	C3027.239746,1013.549561 3029.571777,1011.476196 3030.221924,999.416138 
	C3030.490723,994.426758 3030.598877,989.422668 3030.595459,984.425415 
	C3030.524170,875.111389 3030.431885,765.797424 3030.323242,656.483398 
	C3030.316406,649.825500 3030.689697,643.017578 3024.605713,637.306091 
z"/>
<path fill="#060505" opacity="1.000000" stroke="none" 
	d="
M2684.480713,743.999634 
	C2684.459961,714.344238 2684.535156,685.688232 2684.336182,657.034058 
	C2684.297363,651.431213 2683.365723,645.810486 2682.533936,640.244629 
	C2681.813965,635.424988 2678.744141,632.444214 2673.926514,631.806152 
	C2666.359375,630.804077 2658.751465,630.111572 2651.162354,629.274109 
	C2647.201416,628.837036 2643.119385,628.805176 2639.340088,627.723572 
	C2637.592529,627.223450 2635.234375,624.567444 2635.337891,623.036865 
	C2635.453125,621.340088 2637.807617,618.963074 2639.646484,618.410095 
	C2642.402588,617.581238 2645.560059,618.002808 2648.545166,618.034241 
	C2687.181152,618.441589 2725.821289,619.387146 2764.451172,619.078674 
	C2783.090332,618.929810 2801.680908,617.357605 2820.290039,619.883423 
	C2838.956787,622.416992 2856.548828,627.727600 2872.812012,637.535095 
	C2922.752197,667.651550 2921.622803,733.706482 2889.973877,766.629333 
	C2874.319092,782.913879 2855.491211,793.888916 2833.970703,799.768982 
	C2820.234619,803.522217 2805.963135,805.319824 2791.924805,807.958557 
	C2790.032715,808.314209 2788.101562,808.460938 2783.723145,809.018005 
	C2787.287842,810.634521 2788.691650,811.498474 2790.217773,811.928040 
	C2804.580322,815.970093 2819.324707,818.965759 2833.264893,824.134399 
	C2860.423096,834.203796 2878.579346,853.537659 2888.126465,881.083984 
	C2896.790527,906.083069 2901.080322,931.913879 2904.263428,958.040955 
	C2905.747559,970.222961 2907.423096,982.433777 2910.060547,994.400391 
	C2911.305908,1000.051758 2914.339600,1005.647644 2917.758789,1010.410095 
	C2924.597168,1019.934509 2933.826172,1022.233215 2946.435791,1018.437683 
	C2945.563232,1015.002258 2944.375732,1011.583984 2943.864502,1008.067444 
	C2942.563965,999.120483 2946.252930,994.155823 2954.416260,993.362610 
	C2964.253906,992.406616 2969.622070,996.429871 2970.396729,1005.338806 
	C2971.501465,1018.042908 2965.722168,1026.717163 2952.092285,1029.909302 
	C2926.362549,1035.935425 2901.504639,1033.449219 2879.729980,1017.389160 
	C2859.391602,1002.388489 2846.288330,982.054871 2842.434082,956.888000 
	C2838.860840,933.556396 2836.555908,910.025940 2833.915527,886.557983 
	C2832.606689,874.927673 2830.618652,863.511353 2825.699219,852.806763 
	C2820.528809,841.554321 2812.671631,832.778259 2801.422607,827.281128 
	C2783.400879,818.474243 2764.145020,816.278687 2743.426514,815.978149 
	C2743.426514,819.574341 2743.426758,822.477661 2743.426758,825.380981 
	C2743.427002,881.692444 2743.417725,938.003967 2743.434082,994.315430 
	C2743.437988,1008.175537 2746.351807,1012.040283 2760.112549,1014.171753 
	C2768.294434,1015.439087 2776.678955,1015.408508 2784.973877,1015.934326 
	C2787.300293,1016.081970 2789.876953,1015.554382 2791.889404,1016.402527 
	C2793.675293,1017.155334 2795.553467,1019.208069 2796.009766,1021.032227 
	C2796.286377,1022.139099 2794.219971,1024.543213 2792.699463,1025.212280 
	C2790.682129,1026.099854 2788.170166,1026.075562 2785.870361,1026.077637 
	C2739.555664,1026.118652 2693.240723,1026.108643 2646.926025,1026.103149 
	C2642.611084,1026.102539 2638.249756,1026.174683 2635.502197,1021.374390 
	C2638.543701,1016.035522 2643.813965,1016.604980 2648.523926,1016.136292 
	C2656.460938,1015.346252 2664.488281,1015.223145 2672.353516,1014.012817 
	C2681.546631,1012.598206 2683.560791,1010.071960 2684.131592,1000.891479 
	C2684.503662,994.912720 2684.466553,988.903198 2684.468018,982.907471 
	C2684.487305,903.604858 2684.480713,824.302307 2684.480713,743.999634 
M2756.415527,632.475708 
	C2747.183105,635.524536 2743.536621,642.334656 2743.523438,651.601562 
	C2743.521729,652.932434 2743.430176,654.263245 2743.429932,655.594055 
	C2743.423340,702.524231 2743.410889,749.454407 2743.460205,796.384521 
	C2743.462402,798.573730 2744.029053,800.762207 2744.382080,803.304993 
	C2765.260010,802.524109 2785.466064,801.528564 2804.690430,793.898987 
	C2823.396973,786.474976 2836.717529,773.585327 2842.800293,754.338806 
	C2851.560547,726.620056 2851.628174,698.608948 2842.141357,671.056702 
	C2834.416748,648.623108 2817.904297,636.064331 2794.698242,631.903809 
	C2782.429932,629.704163 2770.227539,629.390564 2756.415527,632.475708 
z"/>
<path fill="#040404" opacity="1.000000" stroke="none" 
	d="
M731.630615,816.289673 
	C742.369629,820.211487 752.585999,823.365295 762.188843,827.836609 
	C782.986267,837.520020 797.606323,853.251099 806.253357,874.669189 
	C814.289429,894.573730 818.933105,915.296753 822.002686,936.409058 
	C824.253479,951.889648 825.306458,967.567749 828.112732,982.935181 
	C829.695862,991.604736 832.690369,1000.406311 836.936584,1008.107727 
	C843.155518,1019.387268 853.719116,1022.439392 867.832214,1018.627136 
	C866.833069,1015.244995 865.620667,1011.907898 864.877930,1008.469421 
	C863.234802,1000.862671 866.431641,995.288086 873.052307,993.758911 
	C881.977539,991.697327 888.403809,994.796021 890.751343,1002.292969 
	C893.454041,1010.924011 890.130066,1021.205322 881.836121,1025.615479 
	C876.099915,1028.665649 869.491821,1030.918335 863.055481,1031.675781 
	C813.308594,1037.529785 771.763123,1006.627686 763.779663,957.265259 
	C759.689636,931.975952 757.389099,906.398865 754.162231,880.966797 
	C753.493469,875.696167 752.641907,870.403198 751.296692,865.272034 
	C745.421326,842.860718 731.733215,827.995483 709.042175,821.731750 
	C694.564392,817.735229 679.955139,815.391785 663.933044,815.993591 
	C663.933044,819.339417 663.932983,822.245544 663.933044,825.151672 
	C663.934021,881.475464 663.926758,937.799255 663.941772,994.123047 
	C663.945557,1008.098083 667.317139,1012.315186 681.541138,1014.378357 
	C689.418457,1015.520935 697.469299,1015.472900 705.443176,1015.940186 
	C707.770264,1016.076599 710.318176,1015.589844 712.367004,1016.397827 
	C714.232178,1017.133240 716.822693,1019.271301 716.783936,1020.729675 
	C716.740479,1022.363037 714.370422,1024.530762 712.517944,1025.358398 
	C710.520386,1026.250977 707.950012,1026.007568 705.629272,1026.009033 
	C660.305908,1026.037720 614.982422,1026.056641 569.659180,1025.989746 
	C564.794250,1025.982666 559.455322,1026.656250 556.503845,1020.887756 
	C560.320007,1016.019470 565.878662,1016.586182 571.042419,1016.097778 
	C578.656128,1015.377686 586.346069,1015.177795 593.880188,1013.980042 
	C602.157471,1012.664185 603.958435,1010.544373 605.109680,1002.381348 
	C605.711548,998.113342 605.799194,993.746277 605.800598,989.423889 
	C605.836731,879.775818 605.855652,770.127747 605.763306,660.479736 
	C605.758240,654.519531 604.767517,648.559509 604.224304,642.600403 
	C603.582947,635.564148 599.461182,631.726746 592.717651,630.892273 
	C585.124146,629.952637 577.473450,629.479187 569.851440,628.762756 
	C566.538940,628.451294 563.123962,628.424255 559.976501,627.508545 
	C558.439453,627.061340 556.211060,624.654175 556.418457,623.523682 
	C556.763062,621.645142 558.513306,619.164490 560.224121,618.593689 
	C562.942444,617.686646 566.119629,617.976807 569.095825,618.048035 
	C594.082947,618.646179 619.065674,619.621887 644.055481,619.845215 
	C661.036377,619.996948 678.039673,619.412292 695.009155,618.636780 
	C719.778625,617.504761 744.421448,617.911255 768.101013,626.080383 
	C777.752869,629.410217 787.246704,633.895874 795.896179,639.317383 
	C843.364746,669.070801 841.728455,734.567505 810.535583,766.637024 
	C792.767395,784.904541 771.141052,795.999329 746.747192,801.832275 
	C733.522339,804.994629 719.962158,806.755005 704.690918,809.480103 
	C713.871887,813.751282 722.818542,813.367493 731.630615,816.289673 
M765.884460,748.396545 
	C771.233704,727.732300 771.515930,706.835205 767.583984,686.011780 
	C763.514404,664.459534 753.838440,646.249329 732.653809,636.861023 
	C715.745056,629.367554 697.929504,628.075195 679.866821,631.811462 
	C669.572876,633.940735 665.152771,639.232910 664.135376,649.619995 
	C663.876465,652.262939 663.937805,654.942139 663.937073,657.604675 
	C663.925049,702.892883 663.926392,748.181091 663.924866,793.469299 
	C663.924744,796.395264 663.924805,799.321289 663.924805,803.179626 
	C680.745605,802.789795 696.502869,802.055969 712.112915,798.266479 
	C738.764221,791.796509 757.454407,776.845154 765.884460,748.396545 
z"/>
<path fill="#070606" opacity="1.000000" stroke="none" 
	d="
M1623.099365,782.660767 
	C1629.746826,768.551331 1632.176758,754.140198 1634.076904,739.582520 
	C1634.635498,735.302124 1635.164062,730.943726 1636.477173,726.869568 
	C1637.073242,725.019958 1639.833984,722.330383 1641.106689,722.581970 
	C1643.236206,723.002991 1645.514038,725.154724 1646.691162,727.181091 
	C1647.763672,729.027588 1647.729980,731.678345 1647.705444,733.969482 
	C1647.637695,740.296814 1647.435791,746.627991 1647.082275,752.946228 
	C1644.734619,794.909241 1644.744995,836.859070 1647.591553,878.800476 
	C1647.862061,882.787720 1648.005615,886.785339 1648.120728,890.780701 
	C1648.237183,894.822510 1647.206665,898.202026 1642.392700,898.514832 
	C1638.201660,898.787109 1636.476685,896.051392 1635.880737,892.419861 
	C1634.533936,884.211121 1633.373657,875.971008 1631.966553,867.773010 
	C1630.786743,860.899048 1629.930054,853.897766 1627.943604,847.247620 
	C1621.989014,827.312012 1609.641113,817.443481 1588.778198,816.272522 
	C1572.817993,815.376892 1556.809326,815.317200 1540.820190,814.975464 
	C1534.571045,814.841858 1528.316406,814.953613 1521.490601,814.953613 
	C1521.490601,881.025085 1521.490601,946.116028 1521.490601,1011.619812 
	C1523.658325,1011.756897 1525.610596,1012.018982 1527.557373,1011.983154 
	C1567.199463,1011.253479 1606.842651,1010.565918 1646.480957,1009.660828 
	C1653.456299,1009.501587 1660.448608,1008.672607 1667.366333,1007.685242 
	C1684.101807,1005.296570 1696.087280,996.108398 1703.857788,981.264282 
	C1711.568115,966.535156 1714.388062,950.537354 1716.052246,934.217285 
	C1716.487793,929.946289 1717.068359,925.541077 1718.605957,921.596436 
	C1719.339722,919.714050 1722.394043,917.899048 1724.541748,917.712158 
	C1725.875366,917.596008 1728.082520,920.356201 1728.810791,922.244507 
	C1729.731567,924.632446 1729.851196,927.453552 1729.792725,930.076172 
	C1729.085815,961.716370 1728.286011,993.354553 1727.476929,1024.992310 
	C1727.461548,1025.590698 1727.038452,1026.178467 1726.582886,1027.338135 
	C1725.641113,1027.469727 1724.401978,1027.801758 1723.165161,1027.793213 
	C1625.876831,1027.121338 1528.588379,1026.431030 1431.300537,1025.694702 
	C1427.660645,1025.667114 1423.988281,1025.399292 1420.397583,1024.826904 
	C1417.624023,1024.384766 1414.856201,1022.778137 1415.912231,1019.558167 
	C1416.426025,1017.991699 1419.105957,1016.388733 1420.979370,1016.145996 
	C1428.569946,1015.162903 1436.233521,1014.758911 1443.860107,1014.035461 
	C1458.021118,1012.692322 1461.317627,1009.423462 1462.119995,995.575684 
	C1462.505127,988.927246 1462.633545,982.255676 1462.635498,975.594482 
	C1462.666138,868.960938 1462.665161,762.327332 1462.634766,655.693787 
	C1462.633423,650.701355 1462.570557,645.679810 1462.048828,640.723145 
	C1461.109253,631.798950 1458.538452,629.136658 1449.489014,628.294434 
	C1442.202271,627.616211 1434.841919,627.765991 1427.525635,627.350037 
	C1423.338257,627.111938 1418.340088,627.831421 1416.689209,622.448730 
	C1415.729004,619.318176 1420.192993,616.955750 1427.704468,616.545044 
	C1431.026489,616.363525 1434.366943,616.522400 1437.699097,616.521240 
	C1517.671021,616.492737 1597.642944,616.511536 1677.614624,616.376770 
	C1688.196411,616.358948 1698.776733,615.557922 1710.034912,615.091553 
	C1712.936890,650.333923 1715.844971,685.651245 1718.700073,720.326172 
	C1713.059326,723.878357 1709.609375,722.657654 1707.499390,718.426819 
	C1705.890503,715.200500 1705.033447,711.590332 1703.927124,708.123779 
	C1699.991821,695.793091 1696.648438,683.234436 1691.962036,671.197754 
	C1689.356812,664.505859 1684.982178,658.341919 1680.623413,652.525818 
	C1670.289917,638.737305 1654.797485,635.114136 1639.007446,634.238037 
	C1606.764404,632.449097 1574.461670,631.721436 1542.180420,630.649536 
	C1535.571167,630.430054 1528.948364,630.617737 1521.615479,630.617737 
	C1521.615479,687.795349 1521.615479,744.300110 1521.615479,801.176514 
	C1521.686279,801.238037 1522.159302,802.012451 1522.651245,802.024597 
	C1548.628052,802.668030 1574.592896,802.963379 1600.279297,798.010498 
	C1609.757568,796.182800 1618.204224,792.742615 1623.099365,782.660767 
z"/>
<path fill="#040303" opacity="1.000000" stroke="none" 
	d="
M2242.000000,1025.870117 
	C2209.680664,1025.946777 2178.361572,1026.056274 2147.042236,1026.062988 
	C2142.576660,1026.063965 2137.564941,1027.182617 2134.438477,1021.687500 
	C2136.921143,1016.730713 2141.855713,1016.766296 2146.239990,1016.181885 
	C2153.163086,1015.258972 2160.170898,1014.964294 2167.091064,1014.023499 
	C2177.913574,1012.552246 2180.025146,1010.488220 2181.351562,999.613525 
	C2181.993896,994.346008 2181.904541,988.971436 2181.901611,983.645447 
	C2181.840820,873.028076 2181.746582,762.410645 2181.649414,651.793274 
	C2181.647461,649.463196 2181.748047,647.104797 2181.438965,644.808289 
	C2180.177246,635.441772 2177.736328,632.656677 2168.371338,631.423645 
	C2161.132568,630.470581 2153.781494,630.366394 2146.479736,629.895752 
	C2139.081055,629.418823 2135.854736,627.447327 2135.820557,623.359558 
	C2135.786133,619.244568 2138.798096,617.299988 2146.552490,617.309998 
	C2169.541504,617.339661 2192.530762,617.713379 2215.519775,617.696228 
	C2270.825195,617.654968 2326.132080,617.662659 2381.434814,617.212524 
	C2396.691650,617.088440 2411.935791,615.424255 2428.037354,614.413330 
	C2428.474854,616.257446 2429.234863,618.354736 2429.443115,620.505493 
	C2432.231201,649.309570 2434.954590,678.119934 2437.652344,706.932739 
	C2437.931641,709.913452 2438.052734,712.919189 2438.051514,715.913269 
	C2438.050293,719.387268 2437.449707,722.944763 2433.442627,723.777588 
	C2428.774414,724.747803 2427.016357,721.161743 2425.827393,717.567383 
	C2424.893799,714.744507 2424.531006,711.737000 2423.675781,708.883179 
	C2419.964355,696.500244 2417.137939,683.738342 2412.189209,671.864624 
	C2402.837158,649.425354 2385.185303,637.013000 2361.086182,634.018982 
	C2353.173828,633.035889 2345.193604,632.122803 2337.237305,632.057739 
	C2312.252686,631.853394 2287.264404,631.982117 2262.279053,632.175293 
	C2255.316895,632.229126 2248.360107,632.952881 2240.873535,633.400818 
	C2240.873535,690.335144 2240.873535,746.763245 2240.873535,804.527222 
	C2258.087402,803.967590 2274.988770,803.830505 2291.825684,802.717224 
	C2302.066406,802.040100 2312.231934,800.000977 2322.387939,798.312195 
	C2334.480225,796.301331 2341.533203,788.388184 2345.855957,777.505005 
	C2350.824219,764.995422 2352.401123,751.806519 2353.819336,738.560486 
	C2354.239258,734.640503 2354.965332,730.619080 2356.440430,727.007446 
	C2357.096924,725.400146 2360.066650,723.679016 2361.785889,723.864807 
	C2363.474609,724.047241 2365.466309,726.325806 2366.305176,728.152832 
	C2367.223389,730.152161 2367.321533,732.709473 2367.181152,734.986938 
	C2364.290039,781.909668 2363.878662,828.845764 2366.290527,875.798584 
	C2366.580078,881.437561 2367.292969,887.053650 2367.648926,892.690552 
	C2367.902832,896.710083 2366.894775,900.030701 2362.050049,900.486694 
	C2357.250977,900.938354 2355.509033,897.830078 2354.895996,893.926208 
	C2353.193848,883.087646 2352.141113,872.125916 2349.955078,861.391418 
	C2348.310059,853.312805 2345.794434,845.320374 2342.782227,837.636353 
	C2339.580811,829.469727 2333.273193,823.880005 2324.574219,821.986938 
	C2316.154541,820.154541 2307.617920,818.530701 2299.048096,817.787964 
	C2279.817627,816.121155 2260.570312,816.913574 2240.348633,818.156250 
	C2240.348633,826.974609 2240.366699,835.207031 2240.345459,843.439331 
	C2240.225342,890.412720 2240.096191,937.386108 2239.967285,984.359497 
	C2239.960938,986.691711 2239.883789,989.024292 2239.906982,991.355957 
	C2240.072510,1007.880615 2246.621338,1014.817200 2263.401855,1015.834839 
	C2269.711426,1016.217407 2276.056641,1016.067017 2282.385498,1016.066711 
	C2286.197754,1016.066467 2289.783447,1016.331787 2291.426025,1020.741882 
	C2289.767090,1026.036377 2285.351562,1026.097168 2280.979736,1026.084106 
	C2268.319824,1026.046387 2255.659912,1025.946045 2242.000000,1025.870117 
z"/>
<path fill="#050404" opacity="1.000000" stroke="none" 
	d="
M1989.416016,704.061279 
	C1989.572266,706.585083 1989.646851,708.249451 1989.745117,709.912537 
	C1989.940063,713.212585 1989.152710,716.602356 1985.441406,716.421326 
	C1982.987427,716.301636 1979.445557,714.348267 1978.502441,712.261475 
	C1976.343750,707.485657 1975.350220,702.155701 1974.113770,696.995605 
	C1968.739136,674.565063 1957.408447,655.752197 1939.708984,640.973450 
	C1922.524780,626.624878 1902.888672,620.006775 1880.373901,623.359436 
	C1854.125244,627.268066 1836.266479,643.522278 1829.874512,669.235535 
	C1826.522461,682.720764 1826.373535,696.394897 1828.742188,709.913452 
	C1832.490601,731.305847 1843.597412,748.487061 1862.020874,759.992493 
	C1878.076904,770.019409 1894.946899,778.739441 1911.417969,788.105835 
	C1926.445435,796.651367 1941.711426,804.828491 1956.310425,814.057068 
	C1965.263916,819.717102 1973.507812,826.656494 1981.473022,833.697266 
	C2030.056030,876.642090 2022.949829,941.952271 1993.089233,979.875854 
	C1958.229736,1024.148315 1902.691406,1041.611694 1846.028442,1025.180420 
	C1834.570801,1021.857910 1823.531372,1017.092041 1812.302368,1012.983154 
	C1807.628296,1011.272827 1803.061279,1009.166992 1798.270996,1007.900757 
	C1790.129028,1005.748291 1787.664795,1007.304749 1785.312256,1015.613586 
	C1784.413330,1018.788757 1784.314453,1022.182007 1783.576782,1025.413208 
	C1782.382935,1030.643066 1779.666016,1032.845703 1775.383301,1032.285156 
	C1770.409546,1031.634155 1769.963501,1027.853027 1770.239502,1024.076172 
	C1770.675415,1018.108521 1771.464722,1012.163940 1772.201294,1006.221558 
	C1775.860962,976.692078 1776.415283,947.103271 1774.085449,917.444763 
	C1773.825562,914.135925 1773.846802,910.778809 1774.066895,907.465881 
	C1774.289551,904.114746 1776.202393,901.403137 1779.638428,901.720337 
	C1781.859619,901.925415 1785.016846,903.569031 1785.807007,905.405701 
	C1787.748657,909.919922 1788.624146,914.903687 1789.821289,919.725159 
	C1792.542847,930.685059 1794.996460,941.716553 1797.977173,952.604492 
	C1799.284546,957.379578 1801.398926,961.975647 1803.511963,966.481812 
	C1824.289795,1010.792419 1871.758667,1031.006348 1918.120117,1015.216187 
	C1939.198120,1008.037231 1952.828857,993.390259 1959.166138,972.214844 
	C1964.119385,955.663696 1964.637329,938.724121 1961.175171,921.796875 
	C1957.222900,902.473755 1947.013550,886.826782 1932.193604,874.024475 
	C1916.965454,860.869690 1899.656128,851.016174 1881.919434,841.729492 
	C1867.491821,834.175415 1853.013306,826.594299 1839.268555,817.900818 
	C1828.633057,811.173950 1818.511108,803.352295 1809.196167,794.879089 
	C1789.998535,777.416321 1780.957397,754.989746 1779.838135,729.223816 
	C1778.645996,701.778137 1784.375244,676.264893 1801.127808,653.924500 
	C1827.998657,618.091125 1872.529175,602.923950 1916.806030,614.804871 
	C1927.375488,617.640991 1937.566528,621.859619 1948.042358,625.082642 
	C1953.405151,626.732666 1958.961792,628.014893 1964.524414,628.677063 
	C1969.697632,629.292969 1973.511597,627.008789 1974.521118,621.279602 
	C1975.038208,618.344360 1975.284424,614.994873 1976.906128,612.729858 
	C1978.355591,610.705444 1981.521118,608.954468 1983.940063,608.940735 
	C1985.368774,608.932617 1987.857666,612.441284 1988.045166,614.532043 
	C1988.456665,619.122498 1987.852783,623.830811 1987.409424,628.466736 
	C1985.018799,653.461121 1985.661865,678.368469 1989.416016,704.061279 
z"/>
<path fill="#060505" opacity="1.000000" stroke="none" 
	d="
M513.461060,979.785767 
	C514.236694,992.389038 514.954834,1004.023132 515.621338,1015.660095 
	C515.735474,1017.652405 516.090820,1019.803589 515.515015,1021.621826 
	C514.675476,1024.272949 513.686401,1028.032104 511.697388,1028.910645 
	C508.124359,1030.488647 505.733307,1027.106201 504.179718,1024.108276 
	C501.732391,1019.385742 499.871094,1014.337585 497.182739,1009.767944 
	C494.347961,1004.949402 490.833893,1000.530396 487.310577,995.499939 
	C485.013550,997.023499 483.331879,997.955078 481.857635,999.143921 
	C454.672760,1021.067810 423.524048,1031.312500 388.713165,1032.381348 
	C273.399719,1035.921387 198.712708,947.413330 187.749405,857.839355 
	C182.285629,813.198486 184.688858,769.275391 201.936249,727.253723 
	C221.905136,678.601379 254.937820,642.123901 304.921600,623.206543 
	C341.070862,609.525208 378.472473,608.590576 416.065765,616.189209 
	C431.509308,619.310852 445.257782,627.123657 459.016876,634.580322 
	C464.273529,637.429138 469.474335,640.476807 474.986603,642.736145 
	C483.370331,646.172546 487.030792,644.740784 491.559967,637.083374 
	C494.265503,632.509216 496.378662,627.524780 499.529663,623.300293 
	C501.013428,621.311035 504.536438,619.354675 506.742462,619.724854 
	C510.489990,620.353699 509.916595,624.222900 509.299072,627.194458 
	C501.993164,662.350708 502.270447,698.021118 501.987640,733.656738 
	C501.955933,737.650879 502.266113,741.760559 501.409851,745.591309 
	C500.926392,747.754272 498.609863,750.674500 496.708008,751.025269 
	C494.806427,751.376099 491.649475,749.457397 490.390472,747.613464 
	C488.798950,745.282410 488.515045,742.035278 487.762787,739.158264 
	C483.227570,721.814148 480.257141,703.875488 473.897095,687.230835 
	C458.542511,647.046692 427.900970,626.537170 385.293182,624.141296 
	C374.746796,623.548340 363.961731,624.323547 353.491028,625.862427 
	C331.902802,629.035339 314.164917,639.648987 299.978424,656.211121 
	C278.909576,680.808105 266.163605,709.474487 259.460175,740.859741 
	C247.241211,798.068481 247.239288,855.223999 262.163208,911.993530 
	C268.311493,935.381104 278.805328,956.807495 293.702972,976.041443 
	C330.007324,1022.913513 386.976318,1028.093262 425.665039,1013.825867 
	C450.723999,1004.584900 469.649139,987.911804 481.840302,964.007690 
	C491.415039,945.233887 497.957306,925.386414 502.139648,904.730347 
	C503.190582,899.540100 504.500427,894.338135 506.416107,889.424133 
	C507.031189,887.846375 510.140442,886.126038 511.806030,886.388794 
	C513.445557,886.647461 515.478638,889.143677 515.944153,891.006775 
	C516.648438,893.824890 516.239502,896.948364 516.137695,899.936462 
	C515.241455,926.230835 514.308289,952.523926 513.461060,979.785767 
z"/>
<path fill="#050505" opacity="1.000000" stroke="none" 
	d="
M2575.978027,618.092102 
	C2583.632568,617.969299 2590.296875,617.678833 2596.950439,617.832214 
	C2599.487061,617.890686 2602.267822,618.486145 2604.454346,619.704468 
	C2607.074219,621.164185 2606.819580,624.150452 2604.374023,625.288025 
	C2601.133057,626.795593 2597.418213,627.533997 2593.829102,627.989685 
	C2586.899414,628.869568 2579.885254,629.094238 2572.960449,630.004272 
	C2563.947021,631.188721 2561.423340,633.723083 2560.380859,642.609375 
	C2559.800293,647.555237 2559.707031,652.579712 2559.705566,657.568848 
	C2559.670654,764.820496 2559.667480,872.072083 2559.709961,979.323730 
	C2559.712646,986.313538 2560.083984,993.305298 2560.375732,1000.292358 
	C2560.642578,1006.686707 2563.569824,1011.081421 2570.196045,1012.129761 
	C2578.718018,1013.477966 2587.269775,1014.646851 2595.821045,1015.800232 
	C2598.124023,1016.110840 2600.634766,1015.623108 2602.746338,1016.365601 
	C2604.334473,1016.924072 2606.631836,1019.017151 2606.485352,1020.153076 
	C2606.246338,1022.010803 2604.620850,1024.484131 2602.951904,1025.171387 
	C2600.634766,1026.125366 2597.715820,1025.960327 2595.090576,1025.771851 
	C2556.499756,1023.001343 2517.907471,1023.348328 2479.304932,1025.473633 
	C2473.655518,1025.784668 2467.985840,1025.855835 2462.326904,1025.815308 
	C2458.629639,1025.788696 2454.235840,1025.602905 2454.035156,1020.747009 
	C2453.852539,1016.327759 2458.129150,1016.075500 2461.349121,1015.663147 
	C2466.628662,1014.986877 2471.953125,1014.661499 2477.259277,1014.195557 
	C2480.241455,1013.933594 2483.269043,1013.928284 2486.199463,1013.388367 
	C2495.839355,1011.612244 2498.041504,1009.574707 2499.346924,999.944885 
	C2500.148682,994.029541 2500.288330,987.989929 2500.291260,982.005920 
	C2500.341797,874.088135 2500.335938,766.170410 2500.296875,658.252625 
	C2500.294922,652.929565 2499.944824,647.602966 2499.641113,642.284546 
	C2499.271729,635.807983 2495.928223,631.646057 2489.465576,630.638123 
	C2482.570801,629.562805 2475.612549,628.886780 2468.673828,628.106445 
	C2466.032471,627.809448 2463.305176,627.999207 2460.732910,627.437195 
	C2457.907959,626.820007 2454.254639,626.287537 2454.498779,622.304138 
	C2454.729492,618.543274 2457.900146,617.842712 2461.084961,617.786133 
	C2463.415039,617.744690 2465.746582,617.796570 2468.077637,617.803040 
	C2503.712891,617.902771 2539.347900,618.001953 2575.978027,618.092102 
z"/>
<path fill="#060606" opacity="1.000000" stroke="none" 
	d="
M1009.629883,880.000183 
	C1009.667236,915.997986 1009.700073,950.995789 1009.751099,985.993530 
	C1009.755005,988.659058 1009.858215,991.325684 1009.966431,993.989746 
	C1010.608643,1009.798950 1012.430603,1011.890625 1028.582642,1014.020935 
	C1035.837158,1014.977905 1043.160400,1015.449646 1050.463989,1015.981628 
	C1053.796753,1016.224304 1057.010132,1017.173462 1056.394653,1020.898438 
	C1056.099854,1022.683472 1053.063354,1024.429321 1050.908691,1025.360962 
	C1049.216919,1026.092529 1046.963867,1025.682495 1044.975708,1025.548706 
	C1006.694763,1022.971741 968.410095,1023.077576 930.115356,1025.232666 
	C924.794678,1025.532104 919.453979,1025.595337 914.124146,1025.555664 
	C911.832642,1025.538574 909.415588,1025.327271 907.303223,1024.539917 
	C905.980408,1024.046753 904.124634,1022.165161 904.275085,1021.174927 
	C904.522034,1019.549072 905.957703,1017.168274 907.327576,1016.820251 
	C911.808777,1015.681824 916.475830,1015.228027 921.091248,1014.676697 
	C927.030518,1013.967102 932.998901,1013.499084 938.936462,1012.777100 
	C945.104553,1012.027039 948.351013,1008.281189 949.115662,1002.249390 
	C949.492004,999.280334 949.931152,996.307007 950.071594,993.322937 
	C950.337830,987.664551 950.540649,981.997070 950.542114,976.333313 
	C950.568359,872.672729 950.574158,769.012085 950.531494,665.351501 
	C950.528442,658.023010 950.355896,650.677429 949.833313,643.370483 
	C949.181519,634.257385 947.026611,631.779968 937.930847,630.158203 
	C931.395935,628.992981 924.713379,628.670410 918.106567,627.887939 
	C914.818420,627.498535 911.439575,627.273804 908.324768,626.277405 
	C906.790833,625.786682 904.459045,623.044556 904.749451,622.475891 
	C905.662231,620.688538 907.430176,618.952942 909.280884,618.142822 
	C910.977600,617.400085 913.211731,617.836365 915.209045,617.835815 
	C958.534912,617.824097 1001.860840,617.798218 1045.186523,617.863037 
	C1049.296997,617.869141 1054.096191,616.818665 1056.239502,622.583191 
	C1053.257446,627.741394 1047.867065,627.255432 1043.178833,627.878296 
	C1036.249268,628.798889 1029.212769,628.930237 1022.292175,629.900146 
	C1013.909058,631.075073 1011.281494,633.684875 1010.368347,642.043213 
	C1009.682739,648.318237 1009.664490,654.685913 1009.660583,661.012573 
	C1009.615845,733.675110 1009.630798,806.337585 1009.629883,880.000183 
z"/>
<path fill="#F1AF4C" opacity="1.000000" stroke="none" 
	d="
M937.981079,204.985260 
	C940.045959,204.167908 942.110901,203.350571 944.711792,202.526642 
	C956.487671,226.653488 967.838074,250.736252 978.943726,274.931335 
	C999.086609,318.815369 1019.067688,362.773712 1039.147949,406.686584 
	C1050.643188,431.825104 1062.045654,457.008301 1073.835083,482.008636 
	C1076.922974,488.556793 1076.223267,493.745178 1072.277832,499.640564 
	C1060.326538,517.498596 1044.934570,531.773376 1025.993042,541.376770 
	C964.851990,572.375427 903.348694,573.601685 842.349426,540.840454 
	C824.750854,531.388733 810.795410,517.656311 800.759216,500.114258 
	C796.871948,493.319702 795.926147,487.194336 799.461121,479.544220 
	C829.075378,415.455292 858.294800,351.183899 887.637268,286.969330 
	C900.369873,259.104614 913.111755,231.244125 926.273438,202.802185 
	C929.436523,202.924332 932.175598,203.626022 934.951416,205.187149 
	C932.353088,211.420731 929.592285,216.737335 927.104370,222.178741 
	C914.924561,248.817719 902.822937,275.492371 890.683594,302.149872 
	C863.645752,361.524109 836.594238,420.892090 809.590759,480.281952 
	C808.592163,482.478241 808.038818,484.876953 807.188110,487.453430 
	C893.651672,487.453430 979.083679,487.453430 1065.461060,487.453430 
	C1063.692627,483.068878 1062.371338,479.370819 1060.741455,475.814087 
	C1022.054688,391.388550 983.312134,306.988556 944.671326,222.541962 
	C942.071045,216.859161 940.194336,210.845215 937.981079,204.985260 
z"/>
<path fill="#F1AF4C" opacity="1.000000" stroke="none" 
	d="
M1525.823242,203.761948 
	C1528.148926,203.746765 1529.824829,204.102386 1532.067871,205.718613 
	C1531.233643,210.708618 1530.046387,214.535858 1528.396118,218.151794 
	C1516.372437,244.499084 1504.248535,270.800659 1492.169556,297.122742 
	C1464.541138,357.330017 1436.910400,417.536255 1409.325928,477.763641 
	C1407.993652,480.672760 1407.092896,483.779602 1405.754395,487.442505 
	C1492.259521,487.442505 1577.662476,487.442505 1664.816528,487.442505 
	C1621.569092,392.573761 1578.824829,298.808807 1536.080566,205.043915 
	C1538.535645,204.140625 1540.990723,203.237320 1543.970459,202.291229 
	C1559.377808,234.602936 1574.320312,266.930084 1589.128418,299.318695 
	C1608.506836,341.703705 1627.768799,384.141968 1647.102539,426.547424 
	C1654.974121,443.812683 1662.519287,461.242859 1670.971069,478.220642 
	C1675.039185,486.392853 1674.405640,493.348633 1669.949707,500.770538 
	C1660.496704,516.515808 1647.740479,528.979309 1632.298340,538.681702 
	C1605.415771,555.572144 1575.881348,563.164490 1544.261108,564.178772 
	C1508.477051,565.326660 1474.786621,558.259094 1443.549805,540.563782 
	C1425.034180,530.074890 1409.345947,516.504517 1397.872803,498.258698 
	C1394.480469,492.863708 1394.179688,488.416290 1396.896606,482.560059 
	C1420.572998,431.527222 1443.963379,380.361664 1467.403442,329.219330 
	C1484.879639,291.089172 1502.291382,252.929459 1519.770386,214.800613 
	C1521.430176,211.179932 1523.365723,207.685669 1525.823242,203.761948 
z"/>
<path fill="#080808" opacity="1.000000" stroke="none" 
	d="
M463.931030,457.346649 
	C465.301422,459.384796 466.644836,461.408569 468.005707,461.420349 
	C490.606812,461.616302 513.210083,461.559906 535.660278,461.559906 
	C536.374939,460.046906 537.133301,459.188324 537.134583,458.328644 
	C537.160034,440.674164 537.422607,423.010834 536.945984,405.367950 
	C536.607300,392.830536 536.150574,392.865509 523.965149,392.001862 
	C522.347717,391.887238 520.724670,391.506165 519.174133,391.023773 
	C518.756287,390.893768 518.595459,389.937744 518.322876,389.357910 
	C524.453918,386.857117 571.508606,386.383392 580.265930,388.837006 
	C577.707886,392.579468 573.829773,391.651520 570.455566,391.981415 
	C562.693604,392.740387 562.300476,393.059448 561.889832,400.999969 
	C561.752258,403.659271 561.785278,406.328735 561.784851,408.993561 
	C561.778503,450.303925 561.778076,491.614319 561.781860,532.924683 
	C561.782104,535.589661 561.769348,538.256653 561.862488,540.919250 
	C562.227051,551.339417 562.341125,551.405884 572.419312,552.441772 
	C575.169006,552.724365 577.888611,553.299927 582.972107,554.120239 
	C579.553345,555.994812 578.485474,557.086365 577.408142,557.095825 
	C558.436890,557.262329 539.464478,557.316895 520.492493,557.283325 
	C519.765198,557.282043 519.039795,556.154968 516.931519,554.406067 
	C523.663940,553.281189 529.106995,552.371765 535.521790,551.299988 
	C536.004028,548.802429 537.012451,545.968994 537.026917,543.130493 
	C537.152283,518.495056 537.099182,493.858826 537.099182,468.646240 
	C512.974060,468.646240 489.140106,468.646240 464.644806,468.646240 
	C464.429382,469.922882 463.949677,471.450195 463.947174,472.978333 
	C463.911346,494.965912 463.845795,516.954224 463.990845,538.941040 
	C464.067566,550.566589 464.252258,550.518860 476.146393,552.311035 
	C478.361542,552.644775 480.494965,553.521240 483.103760,554.273499 
	C477.927612,557.621765 477.928986,557.551819 463.380219,557.268311 
	C456.058044,557.125549 448.727905,557.405701 441.404968,557.282104 
	C434.574432,557.166870 427.638672,558.047852 420.917755,556.532532 
	C420.822327,555.728088 420.726929,554.923584 420.631531,554.119080 
	C424.139465,553.433350 427.628448,552.318054 431.159790,552.162109 
	C436.510193,551.925964 439.154785,549.580017 439.214813,544.229248 
	C439.252136,540.899963 439.494019,537.572144 439.495636,534.243530 
	C439.515961,492.933167 439.509460,451.622803 439.507141,410.312439 
	C439.507050,408.646820 439.537018,406.978424 439.456238,405.316040 
	C438.829559,392.417572 437.515747,390.754974 426.651550,391.677185 
	C424.632996,391.848480 422.486664,390.514069 419.621796,389.636383 
	C421.308655,388.446777 422.091461,387.413239 422.876068,387.411865 
	C441.851196,387.379181 460.826599,387.438782 479.801300,387.577606 
	C480.588287,387.583313 481.368439,388.515961 484.064819,390.239868 
	C480.124542,391.112457 477.911133,391.898010 475.654541,392.052399 
	C464.447815,392.819031 464.063568,393.003723 463.971222,404.426025 
	C463.831146,421.748383 463.920349,439.072632 463.931030,457.346649 
z"/>
<path fill="#080808" opacity="1.000000" stroke="none" 
	d="
M595.905396,553.801514 
	C613.624817,552.038269 613.636230,552.038269 613.638916,535.224426 
	C613.645813,492.564026 613.642578,449.903625 613.638794,407.243225 
	C613.638550,404.577423 613.702759,401.905853 613.554810,399.247101 
	C613.294739,394.575317 611.178711,391.916443 606.047546,391.963654 
	C602.285583,391.998322 598.517517,391.382660 593.320007,390.932892 
	C596.959473,386.196930 600.398926,387.103485 603.402954,387.093872 
	C633.396484,386.997742 663.390320,386.984100 693.384033,386.951447 
	C701.000671,386.943176 708.617310,386.950195 717.097900,386.950195 
	C718.200867,401.242981 719.329895,415.874603 720.458984,430.506226 
	C719.718506,430.776367 718.978027,431.046509 718.237549,431.316650 
	C716.949646,429.777740 715.132812,428.434021 714.478577,426.661255 
	C712.873291,422.311310 711.899780,417.733307 710.500305,413.301300 
	C706.780579,401.521240 698.743713,394.741577 686.373718,394.400177 
	C670.750977,393.968964 655.107300,394.296082 638.806763,394.296082 
	C638.806763,416.880829 638.806763,439.997345 638.806763,464.034271 
	C649.387085,464.120300 659.847046,464.656128 670.373474,462.623627 
	C676.770020,461.388580 680.475464,457.922668 682.050049,451.895752 
	C682.972168,448.366547 683.515564,444.739777 684.386902,441.195618 
	C685.204712,437.869568 684.757385,434.008026 688.338989,430.800171 
	C689.332214,432.315063 690.531494,433.292450 690.533997,434.272919 
	C690.593384,457.171753 690.538025,480.071014 690.383606,502.969391 
	C690.380066,503.488403 688.983459,503.997986 686.818604,505.488037 
	C685.861023,501.335846 685.024231,498.006226 684.336914,494.645996 
	C683.606018,491.072876 683.192871,487.427826 682.329895,483.890045 
	C680.359497,475.811829 674.960266,471.087250 666.830200,470.603699 
	C657.618652,470.055817 648.349487,470.477264 638.629700,470.477264 
	C638.629700,497.423737 638.629700,523.951782 638.629700,551.128418 
	C640.712280,551.372192 642.915039,551.899902 645.102478,551.842957 
	C661.080566,551.426697 677.058655,550.424072 693.030762,550.527405 
	C709.207642,550.632080 715.591614,539.737915 718.015503,527.069641 
	C718.968994,522.086243 718.198914,516.510986 722.291992,512.083435 
	C725.386169,517.442017 725.745911,541.610596 723.242249,558.050903 
	C713.335876,558.050903 703.404968,558.056519 693.474121,558.049866 
	C663.812561,558.029907 634.151062,558.012939 604.489502,557.968994 
	C601.830322,557.965088 599.123230,558.018799 596.544617,557.508728 
	C595.859436,557.373108 595.569092,555.241577 595.905396,553.801514 
z"/>
<path fill="#0A0B0B" opacity="1.000000" stroke="none" 
	d="
M314.492249,393.729584 
	C303.154602,393.762054 293.197418,395.345947 287.705383,405.445374 
	C284.912781,410.580750 283.545685,416.536621 281.879333,422.222748 
	C280.816772,425.848480 281.535767,430.153809 277.079956,433.140839 
	C276.035645,431.530121 274.450012,430.226074 274.518677,429.015930 
	C275.305328,415.153351 276.343597,401.305023 277.337708,387.126099 
	C320.830414,387.126099 363.070648,387.126099 406.484589,387.126099 
	C407.726074,402.174225 408.993927,417.541534 410.407471,434.674927 
	C407.261932,432.970215 404.999420,432.513367 404.453949,431.290588 
	C403.263947,428.623169 402.701111,425.598541 402.313629,422.662872 
	C399.500427,401.349182 390.215363,392.813171 368.753571,392.329041 
	C364.130768,392.224823 359.490295,392.905884 354.295563,393.263947 
	C354.086182,396.179443 353.744659,398.733032 353.742828,401.286896 
	C353.710876,446.266357 353.718842,491.245850 353.726227,536.225342 
	C353.726532,538.223328 353.677673,540.233276 353.867523,542.217102 
	C354.567200,549.528076 356.434845,551.354492 363.661499,552.170654 
	C367.137299,552.563232 370.600677,553.066101 374.344055,555.382263 
	C373.212952,556.109009 372.083008,557.466553 370.950562,557.468689 
	C351.300415,557.505188 331.649841,557.395020 312.000000,557.232483 
	C310.803223,557.222595 309.612274,556.508057 308.214722,554.209534 
	C312.093719,553.542664 315.954468,552.731018 319.855530,552.239746 
	C327.405579,551.289062 328.009552,550.777222 328.730560,543.049683 
	C328.915955,541.062744 328.979523,539.057861 328.980164,537.061218 
	C328.994507,491.415375 328.996094,445.769501 328.980133,400.123657 
	C328.979462,398.204865 328.786713,396.286133 328.645630,393.664734 
	C323.899231,393.664734 319.666382,393.664734 314.492249,393.729584 
z"/>
<path fill="#FFFEFD" opacity="1.000000" stroke="none" 
	d="
M937.487244,204.904938 
	C940.194336,210.845215 942.071045,216.859161 944.671326,222.541962 
	C983.312134,306.988556 1022.054688,391.388550 1060.741455,475.814087 
	C1062.371338,479.370819 1063.692627,483.068878 1065.461060,487.453430 
	C979.083679,487.453430 893.651672,487.453430 807.188110,487.453430 
	C808.038818,484.876953 808.592163,482.478241 809.590759,480.281952 
	C836.594238,420.892090 863.645752,361.524109 890.683594,302.149872 
	C902.822937,275.492371 914.924561,248.817719 927.104370,222.178741 
	C929.592285,216.737335 932.353088,211.420731 935.494690,205.501190 
	C936.332031,204.912048 936.662720,204.868317 937.487244,204.904938 
z"/>
<path fill="#FFFEFD" opacity="1.000000" stroke="none" 
	d="
M1535.468384,204.934769 
	C1578.824829,298.808807 1621.569092,392.573761 1664.816528,487.442505 
	C1577.662476,487.442505 1492.259521,487.442505 1405.754395,487.442505 
	C1407.092896,483.779602 1407.993652,480.672760 1409.325928,477.763641 
	C1436.910400,417.536255 1464.541138,357.330017 1492.169556,297.122742 
	C1504.248535,270.800659 1516.372437,244.499084 1528.396118,218.151794 
	C1530.046387,214.535858 1531.233643,210.708618 1532.540405,206.154694 
	C1533.249023,205.162018 1534.052612,204.993835 1535.468384,204.934769 
z"/>
<path fill="#FDFEFE" opacity="1.000000" stroke="none" 
	d="
M2757.215576,632.300049 
	C2770.227539,629.390564 2782.429932,629.704163 2794.698242,631.903809 
	C2817.904297,636.064331 2834.416748,648.623108 2842.141357,671.056702 
	C2851.628174,698.608948 2851.560547,726.620056 2842.800293,754.338806 
	C2836.717529,773.585327 2823.396973,786.474976 2804.690430,793.898987 
	C2785.466064,801.528564 2765.260010,802.524109 2744.382080,803.304993 
	C2744.029053,800.762207 2743.462402,798.573730 2743.460205,796.384521 
	C2743.410889,749.454407 2743.423340,702.524231 2743.429932,655.594055 
	C2743.430176,654.263245 2743.521729,652.932434 2743.523438,651.601562 
	C2743.536621,642.334656 2747.183105,635.524536 2757.215576,632.300049 
z"/>
<path fill="#FDFDFD" opacity="1.000000" stroke="none" 
	d="
M765.691650,749.180908 
	C757.454407,776.845154 738.764221,791.796509 712.112915,798.266479 
	C696.502869,802.055969 680.745605,802.789795 663.924805,803.179626 
	C663.924805,799.321289 663.924744,796.395264 663.924866,793.469299 
	C663.926392,748.181091 663.925049,702.892883 663.937073,657.604675 
	C663.937805,654.942139 663.876465,652.262939 664.135376,649.619995 
	C665.152771,639.232910 669.572876,633.940735 679.866821,631.811462 
	C697.929504,628.075195 715.745056,629.367554 732.653809,636.861023 
	C753.838440,646.249329 763.514404,664.459534 767.583984,686.011780 
	C771.515930,706.835205 771.233704,727.732300 765.691650,749.180908 
z"/>
</svg>